<mxfile host="app.diagrams.net" agent="Mozilla/5.0 (Windows NT 10.0; Win64; x64) AppleWebKit/537.36 (KHTML, like Gecko) Chrome/128.0.0.0 Safari/537.36" version="24.7.10">
  <diagram name="Sida-1" id="1mVWMdu081lpQG5scYyu">
    <mxGraphModel dx="3474" dy="1487" grid="1" gridSize="10" guides="1" tooltips="1" connect="1" arrows="1" fold="1" page="1" pageScale="1" pageWidth="827" pageHeight="1169" math="0" shadow="0">
      <root>
        <mxCell id="0" />
        <mxCell id="1" parent="0" />
        <mxCell id="bjD7JFmVduCQ07Eca51E-1" value="" style="rounded=0;whiteSpace=wrap;html=1;points=[[0,0,0,0,0],[0,0.25,0,0,0],[0,0.5,0,0,0],[0,0.75,0,0,0],[0,1,0,0,0],[0.25,0,0,0,0],[0.25,1,0,0,0],[0.5,0,0,0,0],[0.5,1,0,0,0],[0.75,0,0,0,0],[0.75,1,0,0,0],[1,0,0,0,0],[1,0.25,0,0,0],[1,0.5,0,0,0],[1,0.75,0,0,0],[1,1,0,0,0]];fillColor=#eef9d7;strokeColor=#36393d;spacingLeft=0;" vertex="1" parent="1">
          <mxGeometry x="190" y="40" width="1920" height="1080" as="geometry" />
        </mxCell>
        <mxCell id="bjD7JFmVduCQ07Eca51E-734" value="" style="rounded=0;whiteSpace=wrap;html=1;fillColor=#E5F9B9;" vertex="1" parent="1">
          <mxGeometry x="210" y="180" width="360" height="920" as="geometry" />
        </mxCell>
        <mxCell id="bjD7JFmVduCQ07Eca51E-2" value="" style="rounded=0;whiteSpace=wrap;html=1;fillColor=#cdeb8b;strokeColor=#36393d;" vertex="1" parent="1">
          <mxGeometry x="190" y="40" width="1920" height="120" as="geometry" />
        </mxCell>
        <mxCell id="bjD7JFmVduCQ07Eca51E-9" value="UserName" style="text;html=1;align=center;verticalAlign=middle;whiteSpace=wrap;rounded=0;fontSize=43;fontFamily=Courier New;fontStyle=1" vertex="1" parent="1">
          <mxGeometry x="1810" y="85" width="110" height="30" as="geometry" />
        </mxCell>
        <mxCell id="bjD7JFmVduCQ07Eca51E-12" value="" style="group" vertex="1" connectable="0" parent="1">
          <mxGeometry x="1998" y="70" width="70" height="70" as="geometry" />
        </mxCell>
        <mxCell id="bjD7JFmVduCQ07Eca51E-3" value="" style="ellipse;whiteSpace=wrap;html=1;aspect=fixed;" vertex="1" parent="bjD7JFmVduCQ07Eca51E-12">
          <mxGeometry width="70" height="70" as="geometry" />
        </mxCell>
        <mxCell id="bjD7JFmVduCQ07Eca51E-22" value="" style="shape=actor;whiteSpace=wrap;html=1;" vertex="1" parent="bjD7JFmVduCQ07Eca51E-12">
          <mxGeometry x="17.5" y="15" width="35" height="40" as="geometry" />
        </mxCell>
        <mxCell id="bjD7JFmVduCQ07Eca51E-15" value="&lt;font style=&quot;font-size: 105px;&quot;&gt;BOOC&lt;/font&gt;" style="text;html=1;align=center;verticalAlign=middle;whiteSpace=wrap;rounded=0;fontSize=105;fontFamily=Courier New;" vertex="1" parent="1">
          <mxGeometry x="240" y="90" width="260" height="30" as="geometry" />
        </mxCell>
        <mxCell id="bjD7JFmVduCQ07Eca51E-40" value="" style="group;strokeColor=default;fillColor=none;gradientColor=default;strokeWidth=2;" vertex="1" connectable="0" parent="1">
          <mxGeometry x="610" y="180" width="1480" height="910" as="geometry" />
        </mxCell>
        <mxCell id="bjD7JFmVduCQ07Eca51E-273" value="" style="rounded=0;whiteSpace=wrap;html=1;strokeColor=#D4D4D4;" vertex="1" parent="bjD7JFmVduCQ07Eca51E-40">
          <mxGeometry y="-1.94" width="1480" height="911.94" as="geometry" />
        </mxCell>
        <mxCell id="bjD7JFmVduCQ07Eca51E-196" value="&lt;font size=&quot;1&quot; face=&quot;Courier New&quot; style=&quot;&quot;&gt;&lt;b style=&quot;font-size: 50px;&quot;&gt;MON&lt;/b&gt;&lt;/font&gt;" style="text;html=1;align=center;verticalAlign=middle;whiteSpace=wrap;rounded=0;" vertex="1" parent="bjD7JFmVduCQ07Eca51E-40">
          <mxGeometry x="58.10079575596818" y="38.72340425531915" width="47.10875331564987" height="29.04255319148936" as="geometry" />
        </mxCell>
        <mxCell id="bjD7JFmVduCQ07Eca51E-197" value="&lt;font size=&quot;1&quot; face=&quot;Courier New&quot; style=&quot;&quot;&gt;&lt;b style=&quot;font-size: 50px;&quot;&gt;TUE&lt;/b&gt;&lt;/font&gt;" style="text;html=1;align=center;verticalAlign=middle;whiteSpace=wrap;rounded=0;" vertex="1" parent="bjD7JFmVduCQ07Eca51E-40">
          <mxGeometry x="280.0014323607427" y="38.72340425531915" width="47.10875331564987" height="29.04255319148936" as="geometry" />
        </mxCell>
        <mxCell id="bjD7JFmVduCQ07Eca51E-202" value="&lt;font size=&quot;1&quot; face=&quot;Courier New&quot; style=&quot;&quot;&gt;&lt;b style=&quot;font-size: 50px;&quot;&gt;WED&lt;/b&gt;&lt;/font&gt;" style="text;html=1;align=center;verticalAlign=middle;whiteSpace=wrap;rounded=0;" vertex="1" parent="bjD7JFmVduCQ07Eca51E-40">
          <mxGeometry x="510.00352785145895" y="38.72340425531915" width="47.10875331564987" height="29.04255319148936" as="geometry" />
        </mxCell>
        <mxCell id="bjD7JFmVduCQ07Eca51E-201" value="&lt;font size=&quot;1&quot; face=&quot;Courier New&quot; style=&quot;&quot;&gt;&lt;b style=&quot;font-size: 50px;&quot;&gt;THU&lt;/b&gt;&lt;/font&gt;" style="text;html=1;align=center;verticalAlign=middle;whiteSpace=wrap;rounded=0;" vertex="1" parent="bjD7JFmVduCQ07Eca51E-40">
          <mxGeometry x="716.0493103448275" y="38.72340425531915" width="47.10875331564987" height="29.04255319148936" as="geometry" />
        </mxCell>
        <mxCell id="bjD7JFmVduCQ07Eca51E-200" value="&lt;font size=&quot;1&quot; face=&quot;Courier New&quot; style=&quot;&quot;&gt;&lt;b style=&quot;font-size: 50px;&quot;&gt;FRI&lt;/b&gt;&lt;/font&gt;" style="text;html=1;align=center;verticalAlign=middle;whiteSpace=wrap;rounded=0;" vertex="1" parent="bjD7JFmVduCQ07Eca51E-40">
          <mxGeometry x="930.004801061008" y="38.72340425531915" width="47.10875331564987" height="29.04255319148936" as="geometry" />
        </mxCell>
        <mxCell id="bjD7JFmVduCQ07Eca51E-199" value="&lt;font size=&quot;1&quot; face=&quot;Courier New&quot; style=&quot;&quot;&gt;&lt;b style=&quot;font-size: 50px;&quot;&gt;SAT&lt;/b&gt;&lt;/font&gt;" style="text;html=1;align=center;verticalAlign=middle;whiteSpace=wrap;rounded=0;" vertex="1" parent="bjD7JFmVduCQ07Eca51E-40">
          <mxGeometry x="1139.9968965517241" y="38.72340425531915" width="47.10875331564987" height="29.04255319148936" as="geometry" />
        </mxCell>
        <mxCell id="bjD7JFmVduCQ07Eca51E-198" value="&lt;font size=&quot;1&quot; face=&quot;Courier New&quot; style=&quot;&quot;&gt;&lt;b style=&quot;font-size: 50px;&quot;&gt;SUN&lt;/b&gt;&lt;/font&gt;" style="text;html=1;align=center;verticalAlign=middle;whiteSpace=wrap;rounded=0;" vertex="1" parent="bjD7JFmVduCQ07Eca51E-40">
          <mxGeometry x="1348.996074270557" y="38.72340425531915" width="47.10875331564987" height="29.04255319148936" as="geometry" />
        </mxCell>
        <mxCell id="bjD7JFmVduCQ07Eca51E-275" value="" style="shape=table;startSize=0;container=1;collapsible=0;childLayout=tableLayout;" vertex="1" parent="bjD7JFmVduCQ07Eca51E-40">
          <mxGeometry x="-2.79" y="95.84" width="1480.79" height="815.3199999999999" as="geometry" />
        </mxCell>
        <mxCell id="bjD7JFmVduCQ07Eca51E-276" value="" style="shape=tableRow;horizontal=0;startSize=0;swimlaneHead=0;swimlaneBody=0;strokeColor=#d4d4d4;top=0;left=0;bottom=0;right=0;collapsible=0;dropTarget=0;fillColor=none;points=[[0,0.5],[1,0.5]];portConstraint=eastwest;" vertex="1" parent="bjD7JFmVduCQ07Eca51E-275">
          <mxGeometry width="1480.79" height="43" as="geometry" />
        </mxCell>
        <mxCell id="bjD7JFmVduCQ07Eca51E-277" value="" style="shape=partialRectangle;html=1;whiteSpace=wrap;connectable=0;overflow=hidden;fillColor=none;top=0;left=0;bottom=0;right=0;pointerEvents=1;" vertex="1" parent="bjD7JFmVduCQ07Eca51E-276">
          <mxGeometry width="211" height="43" as="geometry">
            <mxRectangle width="211" height="43" as="alternateBounds" />
          </mxGeometry>
        </mxCell>
        <mxCell id="bjD7JFmVduCQ07Eca51E-396" style="shape=partialRectangle;html=1;whiteSpace=wrap;connectable=0;strokeColor=#d4d4d4;overflow=hidden;fillColor=none;top=0;left=0;bottom=0;right=0;pointerEvents=1;" vertex="1" parent="bjD7JFmVduCQ07Eca51E-276">
          <mxGeometry x="211" width="213" height="43" as="geometry">
            <mxRectangle width="213" height="43" as="alternateBounds" />
          </mxGeometry>
        </mxCell>
        <mxCell id="bjD7JFmVduCQ07Eca51E-278" value="" style="shape=partialRectangle;html=1;whiteSpace=wrap;connectable=0;strokeColor=#d4d4d4;overflow=hidden;fillColor=none;top=0;left=0;bottom=0;right=0;pointerEvents=1;" vertex="1" parent="bjD7JFmVduCQ07Eca51E-276">
          <mxGeometry x="424" width="210" height="43" as="geometry">
            <mxRectangle width="210" height="43" as="alternateBounds" />
          </mxGeometry>
        </mxCell>
        <mxCell id="bjD7JFmVduCQ07Eca51E-376" style="shape=partialRectangle;html=1;whiteSpace=wrap;connectable=0;strokeColor=#d4d4d4;overflow=hidden;fillColor=none;top=0;left=0;bottom=0;right=0;pointerEvents=1;" vertex="1" parent="bjD7JFmVduCQ07Eca51E-276">
          <mxGeometry x="634" width="211" height="43" as="geometry">
            <mxRectangle width="211" height="43" as="alternateBounds" />
          </mxGeometry>
        </mxCell>
        <mxCell id="bjD7JFmVduCQ07Eca51E-279" value="" style="shape=partialRectangle;html=1;whiteSpace=wrap;connectable=0;strokeColor=#d4d4d4;overflow=hidden;fillColor=none;top=0;left=0;bottom=0;right=0;pointerEvents=1;" vertex="1" parent="bjD7JFmVduCQ07Eca51E-276">
          <mxGeometry x="845" width="212" height="43" as="geometry">
            <mxRectangle width="212" height="43" as="alternateBounds" />
          </mxGeometry>
        </mxCell>
        <mxCell id="bjD7JFmVduCQ07Eca51E-280" value="" style="shape=partialRectangle;html=1;whiteSpace=wrap;connectable=0;strokeColor=#d4d4d4;overflow=hidden;fillColor=none;top=0;left=0;bottom=0;right=0;pointerEvents=1;" vertex="1" parent="bjD7JFmVduCQ07Eca51E-276">
          <mxGeometry x="1057" width="212" height="43" as="geometry">
            <mxRectangle width="212" height="43" as="alternateBounds" />
          </mxGeometry>
        </mxCell>
        <mxCell id="bjD7JFmVduCQ07Eca51E-444" style="shape=partialRectangle;html=1;whiteSpace=wrap;connectable=0;strokeColor=#d4d4d4;overflow=hidden;fillColor=none;top=0;left=0;bottom=0;right=0;pointerEvents=1;" vertex="1" parent="bjD7JFmVduCQ07Eca51E-276">
          <mxGeometry x="1269" width="212" height="43" as="geometry">
            <mxRectangle width="212" height="43" as="alternateBounds" />
          </mxGeometry>
        </mxCell>
        <mxCell id="bjD7JFmVduCQ07Eca51E-281" value="" style="shape=tableRow;horizontal=0;startSize=0;swimlaneHead=0;swimlaneBody=0;strokeColor=#d4d4d4;top=0;left=0;bottom=0;right=0;collapsible=0;dropTarget=0;fillColor=none;points=[[0,0.5],[1,0.5]];portConstraint=eastwest;" vertex="1" parent="bjD7JFmVduCQ07Eca51E-275">
          <mxGeometry y="43" width="1480.79" height="48" as="geometry" />
        </mxCell>
        <mxCell id="bjD7JFmVduCQ07Eca51E-282" value="" style="shape=partialRectangle;html=1;whiteSpace=wrap;connectable=0;strokeColor=#d4d4d4;overflow=hidden;fillColor=none;top=0;left=0;bottom=0;right=0;pointerEvents=1;" vertex="1" parent="bjD7JFmVduCQ07Eca51E-281">
          <mxGeometry width="211" height="48" as="geometry">
            <mxRectangle width="211" height="48" as="alternateBounds" />
          </mxGeometry>
        </mxCell>
        <mxCell id="bjD7JFmVduCQ07Eca51E-397" style="shape=partialRectangle;html=1;whiteSpace=wrap;connectable=0;strokeColor=#d4d4d4;overflow=hidden;fillColor=none;top=0;left=0;bottom=0;right=0;pointerEvents=1;" vertex="1" parent="bjD7JFmVduCQ07Eca51E-281">
          <mxGeometry x="211" width="213" height="48" as="geometry">
            <mxRectangle width="213" height="48" as="alternateBounds" />
          </mxGeometry>
        </mxCell>
        <mxCell id="bjD7JFmVduCQ07Eca51E-283" value="" style="shape=partialRectangle;html=1;whiteSpace=wrap;connectable=0;strokeColor=#d4d4d4;overflow=hidden;fillColor=none;top=0;left=0;bottom=0;right=0;pointerEvents=1;" vertex="1" parent="bjD7JFmVduCQ07Eca51E-281">
          <mxGeometry x="424" width="210" height="48" as="geometry">
            <mxRectangle width="210" height="48" as="alternateBounds" />
          </mxGeometry>
        </mxCell>
        <mxCell id="bjD7JFmVduCQ07Eca51E-377" style="shape=partialRectangle;html=1;whiteSpace=wrap;connectable=0;strokeColor=#d4d4d4;overflow=hidden;fillColor=none;top=0;left=0;bottom=0;right=0;pointerEvents=1;" vertex="1" parent="bjD7JFmVduCQ07Eca51E-281">
          <mxGeometry x="634" width="211" height="48" as="geometry">
            <mxRectangle width="211" height="48" as="alternateBounds" />
          </mxGeometry>
        </mxCell>
        <mxCell id="bjD7JFmVduCQ07Eca51E-284" value="" style="shape=partialRectangle;html=1;whiteSpace=wrap;connectable=0;strokeColor=#d4d4d4;overflow=hidden;fillColor=none;top=0;left=0;bottom=0;right=0;pointerEvents=1;" vertex="1" parent="bjD7JFmVduCQ07Eca51E-281">
          <mxGeometry x="845" width="212" height="48" as="geometry">
            <mxRectangle width="212" height="48" as="alternateBounds" />
          </mxGeometry>
        </mxCell>
        <mxCell id="bjD7JFmVduCQ07Eca51E-285" value="" style="shape=partialRectangle;html=1;whiteSpace=wrap;connectable=0;strokeColor=#d4d4d4;overflow=hidden;fillColor=none;top=0;left=0;bottom=0;right=0;pointerEvents=1;" vertex="1" parent="bjD7JFmVduCQ07Eca51E-281">
          <mxGeometry x="1057" width="212" height="48" as="geometry">
            <mxRectangle width="212" height="48" as="alternateBounds" />
          </mxGeometry>
        </mxCell>
        <mxCell id="bjD7JFmVduCQ07Eca51E-445" style="shape=partialRectangle;html=1;whiteSpace=wrap;connectable=0;strokeColor=#d4d4d4;overflow=hidden;fillColor=none;top=0;left=0;bottom=0;right=0;pointerEvents=1;" vertex="1" parent="bjD7JFmVduCQ07Eca51E-281">
          <mxGeometry x="1269" width="212" height="48" as="geometry">
            <mxRectangle width="212" height="48" as="alternateBounds" />
          </mxGeometry>
        </mxCell>
        <mxCell id="bjD7JFmVduCQ07Eca51E-286" value="" style="shape=tableRow;horizontal=0;startSize=0;swimlaneHead=0;swimlaneBody=0;strokeColor=#d4d4d4;top=0;left=0;bottom=0;right=0;collapsible=0;dropTarget=0;fillColor=none;points=[[0,0.5],[1,0.5]];portConstraint=eastwest;" vertex="1" parent="bjD7JFmVduCQ07Eca51E-275">
          <mxGeometry y="91" width="1480.79" height="50" as="geometry" />
        </mxCell>
        <mxCell id="bjD7JFmVduCQ07Eca51E-287" value="" style="shape=partialRectangle;html=1;whiteSpace=wrap;connectable=0;strokeColor=#d4d4d4;overflow=hidden;fillColor=none;top=0;left=0;bottom=0;right=0;pointerEvents=1;" vertex="1" parent="bjD7JFmVduCQ07Eca51E-286">
          <mxGeometry width="211" height="50" as="geometry">
            <mxRectangle width="211" height="50" as="alternateBounds" />
          </mxGeometry>
        </mxCell>
        <mxCell id="bjD7JFmVduCQ07Eca51E-398" style="shape=partialRectangle;html=1;whiteSpace=wrap;connectable=0;strokeColor=#d4d4d4;overflow=hidden;fillColor=none;top=0;left=0;bottom=0;right=0;pointerEvents=1;" vertex="1" parent="bjD7JFmVduCQ07Eca51E-286">
          <mxGeometry x="211" width="213" height="50" as="geometry">
            <mxRectangle width="213" height="50" as="alternateBounds" />
          </mxGeometry>
        </mxCell>
        <mxCell id="bjD7JFmVduCQ07Eca51E-288" value="" style="shape=partialRectangle;html=1;whiteSpace=wrap;connectable=0;strokeColor=#d4d4d4;overflow=hidden;fillColor=none;top=0;left=0;bottom=0;right=0;pointerEvents=1;" vertex="1" parent="bjD7JFmVduCQ07Eca51E-286">
          <mxGeometry x="424" width="210" height="50" as="geometry">
            <mxRectangle width="210" height="50" as="alternateBounds" />
          </mxGeometry>
        </mxCell>
        <mxCell id="bjD7JFmVduCQ07Eca51E-378" style="shape=partialRectangle;html=1;whiteSpace=wrap;connectable=0;strokeColor=#d4d4d4;overflow=hidden;fillColor=none;top=0;left=0;bottom=0;right=0;pointerEvents=1;" vertex="1" parent="bjD7JFmVduCQ07Eca51E-286">
          <mxGeometry x="634" width="211" height="50" as="geometry">
            <mxRectangle width="211" height="50" as="alternateBounds" />
          </mxGeometry>
        </mxCell>
        <mxCell id="bjD7JFmVduCQ07Eca51E-289" value="" style="shape=partialRectangle;html=1;whiteSpace=wrap;connectable=0;strokeColor=#d4d4d4;overflow=hidden;fillColor=none;top=0;left=0;bottom=0;right=0;pointerEvents=1;" vertex="1" parent="bjD7JFmVduCQ07Eca51E-286">
          <mxGeometry x="845" width="212" height="50" as="geometry">
            <mxRectangle width="212" height="50" as="alternateBounds" />
          </mxGeometry>
        </mxCell>
        <mxCell id="bjD7JFmVduCQ07Eca51E-290" value="" style="shape=partialRectangle;html=1;whiteSpace=wrap;connectable=0;strokeColor=#d4d4d4;overflow=hidden;fillColor=none;top=0;left=0;bottom=0;right=0;pointerEvents=1;" vertex="1" parent="bjD7JFmVduCQ07Eca51E-286">
          <mxGeometry x="1057" width="212" height="50" as="geometry">
            <mxRectangle width="212" height="50" as="alternateBounds" />
          </mxGeometry>
        </mxCell>
        <mxCell id="bjD7JFmVduCQ07Eca51E-446" style="shape=partialRectangle;html=1;whiteSpace=wrap;connectable=0;strokeColor=#d4d4d4;overflow=hidden;fillColor=none;top=0;left=0;bottom=0;right=0;pointerEvents=1;" vertex="1" parent="bjD7JFmVduCQ07Eca51E-286">
          <mxGeometry x="1269" width="212" height="50" as="geometry">
            <mxRectangle width="212" height="50" as="alternateBounds" />
          </mxGeometry>
        </mxCell>
        <mxCell id="bjD7JFmVduCQ07Eca51E-291" value="" style="shape=tableRow;horizontal=0;startSize=0;swimlaneHead=0;swimlaneBody=0;strokeColor=#d4d4d4;top=0;left=0;bottom=0;right=0;collapsible=0;dropTarget=0;fillColor=none;points=[[0,0.5],[1,0.5]];portConstraint=eastwest;" vertex="1" parent="bjD7JFmVduCQ07Eca51E-275">
          <mxGeometry y="141" width="1480.79" height="48" as="geometry" />
        </mxCell>
        <mxCell id="bjD7JFmVduCQ07Eca51E-292" value="" style="shape=partialRectangle;html=1;whiteSpace=wrap;connectable=0;strokeColor=#d4d4d4;overflow=hidden;fillColor=none;top=0;left=0;bottom=0;right=0;pointerEvents=1;" vertex="1" parent="bjD7JFmVduCQ07Eca51E-291">
          <mxGeometry width="211" height="48" as="geometry">
            <mxRectangle width="211" height="48" as="alternateBounds" />
          </mxGeometry>
        </mxCell>
        <mxCell id="bjD7JFmVduCQ07Eca51E-399" style="shape=partialRectangle;html=1;whiteSpace=wrap;connectable=0;strokeColor=#d4d4d4;overflow=hidden;fillColor=none;top=0;left=0;bottom=0;right=0;pointerEvents=1;" vertex="1" parent="bjD7JFmVduCQ07Eca51E-291">
          <mxGeometry x="211" width="213" height="48" as="geometry">
            <mxRectangle width="213" height="48" as="alternateBounds" />
          </mxGeometry>
        </mxCell>
        <mxCell id="bjD7JFmVduCQ07Eca51E-293" value="" style="shape=partialRectangle;html=1;whiteSpace=wrap;connectable=0;strokeColor=#d4d4d4;overflow=hidden;fillColor=none;top=0;left=0;bottom=0;right=0;pointerEvents=1;" vertex="1" parent="bjD7JFmVduCQ07Eca51E-291">
          <mxGeometry x="424" width="210" height="48" as="geometry">
            <mxRectangle width="210" height="48" as="alternateBounds" />
          </mxGeometry>
        </mxCell>
        <mxCell id="bjD7JFmVduCQ07Eca51E-379" style="shape=partialRectangle;html=1;whiteSpace=wrap;connectable=0;strokeColor=#d4d4d4;overflow=hidden;fillColor=none;top=0;left=0;bottom=0;right=0;pointerEvents=1;" vertex="1" parent="bjD7JFmVduCQ07Eca51E-291">
          <mxGeometry x="634" width="211" height="48" as="geometry">
            <mxRectangle width="211" height="48" as="alternateBounds" />
          </mxGeometry>
        </mxCell>
        <mxCell id="bjD7JFmVduCQ07Eca51E-294" value="" style="shape=partialRectangle;html=1;whiteSpace=wrap;connectable=0;strokeColor=#d4d4d4;overflow=hidden;fillColor=none;top=0;left=0;bottom=0;right=0;pointerEvents=1;" vertex="1" parent="bjD7JFmVduCQ07Eca51E-291">
          <mxGeometry x="845" width="212" height="48" as="geometry">
            <mxRectangle width="212" height="48" as="alternateBounds" />
          </mxGeometry>
        </mxCell>
        <mxCell id="bjD7JFmVduCQ07Eca51E-295" value="" style="shape=partialRectangle;html=1;whiteSpace=wrap;connectable=0;strokeColor=#d4d4d4;overflow=hidden;fillColor=none;top=0;left=0;bottom=0;right=0;pointerEvents=1;" vertex="1" parent="bjD7JFmVduCQ07Eca51E-291">
          <mxGeometry x="1057" width="212" height="48" as="geometry">
            <mxRectangle width="212" height="48" as="alternateBounds" />
          </mxGeometry>
        </mxCell>
        <mxCell id="bjD7JFmVduCQ07Eca51E-447" style="shape=partialRectangle;html=1;whiteSpace=wrap;connectable=0;strokeColor=#d4d4d4;overflow=hidden;fillColor=none;top=0;left=0;bottom=0;right=0;pointerEvents=1;" vertex="1" parent="bjD7JFmVduCQ07Eca51E-291">
          <mxGeometry x="1269" width="212" height="48" as="geometry">
            <mxRectangle width="212" height="48" as="alternateBounds" />
          </mxGeometry>
        </mxCell>
        <mxCell id="bjD7JFmVduCQ07Eca51E-296" value="" style="shape=tableRow;horizontal=0;startSize=0;swimlaneHead=0;swimlaneBody=0;strokeColor=#d4d4d4;top=0;left=0;bottom=0;right=0;collapsible=0;dropTarget=0;fillColor=none;points=[[0,0.5],[1,0.5]];portConstraint=eastwest;" vertex="1" parent="bjD7JFmVduCQ07Eca51E-275">
          <mxGeometry y="189" width="1480.79" height="47" as="geometry" />
        </mxCell>
        <mxCell id="bjD7JFmVduCQ07Eca51E-297" value="" style="shape=partialRectangle;html=1;whiteSpace=wrap;connectable=0;strokeColor=#ae4132;overflow=hidden;fillColor=#fad9d5;top=0;left=0;bottom=0;right=0;pointerEvents=1;" vertex="1" parent="bjD7JFmVduCQ07Eca51E-296">
          <mxGeometry width="211" height="47" as="geometry">
            <mxRectangle width="211" height="47" as="alternateBounds" />
          </mxGeometry>
        </mxCell>
        <mxCell id="bjD7JFmVduCQ07Eca51E-400" style="shape=partialRectangle;html=1;whiteSpace=wrap;connectable=0;strokeColor=#10739e;overflow=hidden;fillColor=#b1ddf0;top=0;left=0;bottom=0;right=0;pointerEvents=1;" vertex="1" parent="bjD7JFmVduCQ07Eca51E-296">
          <mxGeometry x="211" width="213" height="47" as="geometry">
            <mxRectangle width="213" height="47" as="alternateBounds" />
          </mxGeometry>
        </mxCell>
        <mxCell id="bjD7JFmVduCQ07Eca51E-298" value="" style="shape=partialRectangle;html=1;whiteSpace=wrap;connectable=0;strokeColor=#56517e;overflow=hidden;fillColor=#d0cee2;top=0;left=0;bottom=0;right=0;pointerEvents=1;" vertex="1" parent="bjD7JFmVduCQ07Eca51E-296">
          <mxGeometry x="424" width="210" height="47" as="geometry">
            <mxRectangle width="210" height="47" as="alternateBounds" />
          </mxGeometry>
        </mxCell>
        <mxCell id="bjD7JFmVduCQ07Eca51E-380" style="shape=partialRectangle;html=1;whiteSpace=wrap;connectable=0;strokeColor=#d4d4d4;overflow=hidden;fillColor=none;top=0;left=0;bottom=0;right=0;pointerEvents=1;" vertex="1" parent="bjD7JFmVduCQ07Eca51E-296">
          <mxGeometry x="634" width="211" height="47" as="geometry">
            <mxRectangle width="211" height="47" as="alternateBounds" />
          </mxGeometry>
        </mxCell>
        <mxCell id="bjD7JFmVduCQ07Eca51E-299" value="" style="shape=partialRectangle;html=1;whiteSpace=wrap;connectable=0;strokeColor=#b46504;overflow=hidden;fillColor=#fad7ac;top=0;left=0;bottom=0;right=0;pointerEvents=1;" vertex="1" parent="bjD7JFmVduCQ07Eca51E-296">
          <mxGeometry x="845" width="212" height="47" as="geometry">
            <mxRectangle width="212" height="47" as="alternateBounds" />
          </mxGeometry>
        </mxCell>
        <mxCell id="bjD7JFmVduCQ07Eca51E-300" value="" style="shape=partialRectangle;html=1;whiteSpace=wrap;connectable=0;strokeColor=#d4d4d4;overflow=hidden;fillColor=none;top=0;left=0;bottom=0;right=0;pointerEvents=1;" vertex="1" parent="bjD7JFmVduCQ07Eca51E-296">
          <mxGeometry x="1057" width="212" height="47" as="geometry">
            <mxRectangle width="212" height="47" as="alternateBounds" />
          </mxGeometry>
        </mxCell>
        <mxCell id="bjD7JFmVduCQ07Eca51E-448" style="shape=partialRectangle;html=1;whiteSpace=wrap;connectable=0;strokeColor=#d4d4d4;overflow=hidden;fillColor=none;top=0;left=0;bottom=0;right=0;pointerEvents=1;" vertex="1" parent="bjD7JFmVduCQ07Eca51E-296">
          <mxGeometry x="1269" width="212" height="47" as="geometry">
            <mxRectangle width="212" height="47" as="alternateBounds" />
          </mxGeometry>
        </mxCell>
        <mxCell id="bjD7JFmVduCQ07Eca51E-301" value="" style="shape=tableRow;horizontal=0;startSize=0;swimlaneHead=0;swimlaneBody=0;strokeColor=#d4d4d4;top=0;left=0;bottom=0;right=0;collapsible=0;dropTarget=0;fillColor=none;points=[[0,0.5],[1,0.5]];portConstraint=eastwest;" vertex="1" parent="bjD7JFmVduCQ07Eca51E-275">
          <mxGeometry y="236" width="1480.79" height="49" as="geometry" />
        </mxCell>
        <mxCell id="bjD7JFmVduCQ07Eca51E-302" value="" style="shape=partialRectangle;html=1;whiteSpace=wrap;connectable=0;strokeColor=#ae4132;overflow=hidden;fillColor=#fad9d5;top=0;left=0;bottom=0;right=0;pointerEvents=1;" vertex="1" parent="bjD7JFmVduCQ07Eca51E-301">
          <mxGeometry width="211" height="49" as="geometry">
            <mxRectangle width="211" height="49" as="alternateBounds" />
          </mxGeometry>
        </mxCell>
        <mxCell id="bjD7JFmVduCQ07Eca51E-401" style="shape=partialRectangle;html=1;whiteSpace=wrap;connectable=0;strokeColor=#d4d4d4;overflow=hidden;fillColor=none;top=0;left=0;bottom=0;right=0;pointerEvents=1;" vertex="1" parent="bjD7JFmVduCQ07Eca51E-301">
          <mxGeometry x="211" width="213" height="49" as="geometry">
            <mxRectangle width="213" height="49" as="alternateBounds" />
          </mxGeometry>
        </mxCell>
        <mxCell id="bjD7JFmVduCQ07Eca51E-303" value="" style="shape=partialRectangle;html=1;whiteSpace=wrap;connectable=0;strokeColor=#b46504;overflow=hidden;fillColor=#fad7ac;top=0;left=0;bottom=0;right=0;pointerEvents=1;" vertex="1" parent="bjD7JFmVduCQ07Eca51E-301">
          <mxGeometry x="424" width="210" height="49" as="geometry">
            <mxRectangle width="210" height="49" as="alternateBounds" />
          </mxGeometry>
        </mxCell>
        <mxCell id="bjD7JFmVduCQ07Eca51E-381" style="shape=partialRectangle;html=1;whiteSpace=wrap;connectable=0;strokeColor=#ae4132;overflow=hidden;fillColor=#fad9d5;top=0;left=0;bottom=0;right=0;pointerEvents=1;" vertex="1" parent="bjD7JFmVduCQ07Eca51E-301">
          <mxGeometry x="634" width="211" height="49" as="geometry">
            <mxRectangle width="211" height="49" as="alternateBounds" />
          </mxGeometry>
        </mxCell>
        <mxCell id="bjD7JFmVduCQ07Eca51E-304" value="" style="shape=partialRectangle;html=1;whiteSpace=wrap;connectable=0;strokeColor=#d4d4d4;overflow=hidden;fillColor=none;top=0;left=0;bottom=0;right=0;pointerEvents=1;" vertex="1" parent="bjD7JFmVduCQ07Eca51E-301">
          <mxGeometry x="845" width="212" height="49" as="geometry">
            <mxRectangle width="212" height="49" as="alternateBounds" />
          </mxGeometry>
        </mxCell>
        <mxCell id="bjD7JFmVduCQ07Eca51E-305" value="" style="shape=partialRectangle;html=1;whiteSpace=wrap;connectable=0;strokeColor=#d4d4d4;overflow=hidden;fillColor=none;top=0;left=0;bottom=0;right=0;pointerEvents=1;" vertex="1" parent="bjD7JFmVduCQ07Eca51E-301">
          <mxGeometry x="1057" width="212" height="49" as="geometry">
            <mxRectangle width="212" height="49" as="alternateBounds" />
          </mxGeometry>
        </mxCell>
        <mxCell id="bjD7JFmVduCQ07Eca51E-449" style="shape=partialRectangle;html=1;whiteSpace=wrap;connectable=0;strokeColor=#d4d4d4;overflow=hidden;fillColor=none;top=0;left=0;bottom=0;right=0;pointerEvents=1;" vertex="1" parent="bjD7JFmVduCQ07Eca51E-301">
          <mxGeometry x="1269" width="212" height="49" as="geometry">
            <mxRectangle width="212" height="49" as="alternateBounds" />
          </mxGeometry>
        </mxCell>
        <mxCell id="bjD7JFmVduCQ07Eca51E-306" value="" style="shape=tableRow;horizontal=0;startSize=0;swimlaneHead=0;swimlaneBody=0;strokeColor=#d4d4d4;top=0;left=0;bottom=0;right=0;collapsible=0;dropTarget=0;fillColor=none;points=[[0,0.5],[1,0.5]];portConstraint=eastwest;" vertex="1" parent="bjD7JFmVduCQ07Eca51E-275">
          <mxGeometry y="285" width="1480.79" height="49" as="geometry" />
        </mxCell>
        <mxCell id="bjD7JFmVduCQ07Eca51E-307" value="" style="shape=partialRectangle;html=1;whiteSpace=wrap;connectable=0;overflow=hidden;fillColor=none;top=0;left=0;bottom=0;right=0;pointerEvents=1;" vertex="1" parent="bjD7JFmVduCQ07Eca51E-306">
          <mxGeometry width="211" height="49" as="geometry">
            <mxRectangle width="211" height="49" as="alternateBounds" />
          </mxGeometry>
        </mxCell>
        <mxCell id="bjD7JFmVduCQ07Eca51E-402" style="shape=partialRectangle;html=1;whiteSpace=wrap;connectable=0;strokeColor=#d4d4d4;overflow=hidden;fillColor=none;top=0;left=0;bottom=0;right=0;pointerEvents=1;" vertex="1" parent="bjD7JFmVduCQ07Eca51E-306">
          <mxGeometry x="211" width="213" height="49" as="geometry">
            <mxRectangle width="213" height="49" as="alternateBounds" />
          </mxGeometry>
        </mxCell>
        <mxCell id="bjD7JFmVduCQ07Eca51E-308" value="" style="shape=partialRectangle;html=1;whiteSpace=wrap;connectable=0;strokeColor=#10739e;overflow=hidden;fillColor=#b1ddf0;top=0;left=0;bottom=0;right=0;pointerEvents=1;" vertex="1" parent="bjD7JFmVduCQ07Eca51E-306">
          <mxGeometry x="424" width="210" height="49" as="geometry">
            <mxRectangle width="210" height="49" as="alternateBounds" />
          </mxGeometry>
        </mxCell>
        <mxCell id="bjD7JFmVduCQ07Eca51E-382" style="shape=partialRectangle;html=1;whiteSpace=wrap;connectable=0;strokeColor=#d4d4d4;overflow=hidden;fillColor=none;top=0;left=0;bottom=0;right=0;pointerEvents=1;" vertex="1" parent="bjD7JFmVduCQ07Eca51E-306">
          <mxGeometry x="634" width="211" height="49" as="geometry">
            <mxRectangle width="211" height="49" as="alternateBounds" />
          </mxGeometry>
        </mxCell>
        <mxCell id="bjD7JFmVduCQ07Eca51E-309" value="" style="shape=partialRectangle;html=1;whiteSpace=wrap;connectable=0;strokeColor=#56517e;overflow=hidden;fillColor=#d0cee2;top=0;left=0;bottom=0;right=0;pointerEvents=1;" vertex="1" parent="bjD7JFmVduCQ07Eca51E-306">
          <mxGeometry x="845" width="212" height="49" as="geometry">
            <mxRectangle width="212" height="49" as="alternateBounds" />
          </mxGeometry>
        </mxCell>
        <mxCell id="bjD7JFmVduCQ07Eca51E-310" value="" style="shape=partialRectangle;html=1;whiteSpace=wrap;connectable=0;strokeColor=#d4d4d4;overflow=hidden;fillColor=none;top=0;left=0;bottom=0;right=0;pointerEvents=1;" vertex="1" parent="bjD7JFmVduCQ07Eca51E-306">
          <mxGeometry x="1057" width="212" height="49" as="geometry">
            <mxRectangle width="212" height="49" as="alternateBounds" />
          </mxGeometry>
        </mxCell>
        <mxCell id="bjD7JFmVduCQ07Eca51E-450" style="shape=partialRectangle;html=1;whiteSpace=wrap;connectable=0;strokeColor=#d4d4d4;overflow=hidden;fillColor=none;top=0;left=0;bottom=0;right=0;pointerEvents=1;" vertex="1" parent="bjD7JFmVduCQ07Eca51E-306">
          <mxGeometry x="1269" width="212" height="49" as="geometry">
            <mxRectangle width="212" height="49" as="alternateBounds" />
          </mxGeometry>
        </mxCell>
        <mxCell id="bjD7JFmVduCQ07Eca51E-311" value="" style="shape=tableRow;horizontal=0;startSize=0;swimlaneHead=0;swimlaneBody=0;strokeColor=#d4d4d4;top=0;left=0;bottom=0;right=0;collapsible=0;dropTarget=0;fillColor=none;points=[[0,0.5],[1,0.5]];portConstraint=eastwest;" vertex="1" parent="bjD7JFmVduCQ07Eca51E-275">
          <mxGeometry y="334" width="1480.79" height="47" as="geometry" />
        </mxCell>
        <mxCell id="bjD7JFmVduCQ07Eca51E-312" value="" style="shape=partialRectangle;html=1;whiteSpace=wrap;connectable=0;overflow=hidden;top=0;left=0;bottom=0;right=0;pointerEvents=1;fillColor=none;" vertex="1" parent="bjD7JFmVduCQ07Eca51E-311">
          <mxGeometry width="211" height="47" as="geometry">
            <mxRectangle width="211" height="47" as="alternateBounds" />
          </mxGeometry>
        </mxCell>
        <mxCell id="bjD7JFmVduCQ07Eca51E-403" style="shape=partialRectangle;html=1;whiteSpace=wrap;connectable=0;overflow=hidden;fillColor=none;top=0;left=0;bottom=0;right=0;pointerEvents=1;" vertex="1" parent="bjD7JFmVduCQ07Eca51E-311">
          <mxGeometry x="211" width="213" height="47" as="geometry">
            <mxRectangle width="213" height="47" as="alternateBounds" />
          </mxGeometry>
        </mxCell>
        <mxCell id="bjD7JFmVduCQ07Eca51E-313" value="" style="shape=partialRectangle;html=1;whiteSpace=wrap;connectable=0;overflow=hidden;fillColor=#b1ddf0;top=0;left=0;bottom=0;right=0;pointerEvents=1;strokeColor=#10739e;" vertex="1" parent="bjD7JFmVduCQ07Eca51E-311">
          <mxGeometry x="424" width="210" height="47" as="geometry">
            <mxRectangle width="210" height="47" as="alternateBounds" />
          </mxGeometry>
        </mxCell>
        <mxCell id="bjD7JFmVduCQ07Eca51E-383" style="shape=partialRectangle;html=1;whiteSpace=wrap;connectable=0;overflow=hidden;fillColor=#d0cee2;top=0;left=0;bottom=0;right=0;pointerEvents=1;strokeColor=#56517e;" vertex="1" parent="bjD7JFmVduCQ07Eca51E-311">
          <mxGeometry x="634" width="211" height="47" as="geometry">
            <mxRectangle width="211" height="47" as="alternateBounds" />
          </mxGeometry>
        </mxCell>
        <mxCell id="bjD7JFmVduCQ07Eca51E-314" value="" style="shape=partialRectangle;html=1;whiteSpace=wrap;connectable=0;overflow=hidden;fillColor=#d0cee2;top=0;left=0;bottom=0;right=0;pointerEvents=1;strokeColor=#56517e;" vertex="1" parent="bjD7JFmVduCQ07Eca51E-311">
          <mxGeometry x="845" width="212" height="47" as="geometry">
            <mxRectangle width="212" height="47" as="alternateBounds" />
          </mxGeometry>
        </mxCell>
        <mxCell id="bjD7JFmVduCQ07Eca51E-315" value="" style="shape=partialRectangle;html=1;whiteSpace=wrap;connectable=0;strokeColor=#d4d4d4;overflow=hidden;fillColor=none;top=0;left=0;bottom=0;right=0;pointerEvents=1;" vertex="1" parent="bjD7JFmVduCQ07Eca51E-311">
          <mxGeometry x="1057" width="212" height="47" as="geometry">
            <mxRectangle width="212" height="47" as="alternateBounds" />
          </mxGeometry>
        </mxCell>
        <mxCell id="bjD7JFmVduCQ07Eca51E-451" style="shape=partialRectangle;html=1;whiteSpace=wrap;connectable=0;strokeColor=#d4d4d4;overflow=hidden;fillColor=none;top=0;left=0;bottom=0;right=0;pointerEvents=1;" vertex="1" parent="bjD7JFmVduCQ07Eca51E-311">
          <mxGeometry x="1269" width="212" height="47" as="geometry">
            <mxRectangle width="212" height="47" as="alternateBounds" />
          </mxGeometry>
        </mxCell>
        <mxCell id="bjD7JFmVduCQ07Eca51E-316" value="" style="shape=tableRow;horizontal=0;startSize=0;swimlaneHead=0;swimlaneBody=0;strokeColor=#d4d4d4;top=0;left=0;bottom=0;right=0;collapsible=0;dropTarget=0;fillColor=none;points=[[0,0.5],[1,0.5]];portConstraint=eastwest;" vertex="1" parent="bjD7JFmVduCQ07Eca51E-275">
          <mxGeometry y="381" width="1480.79" height="49" as="geometry" />
        </mxCell>
        <mxCell id="bjD7JFmVduCQ07Eca51E-317" value="" style="shape=partialRectangle;html=1;whiteSpace=wrap;connectable=0;overflow=hidden;top=0;left=0;bottom=0;right=0;pointerEvents=1;fillColor=none;" vertex="1" parent="bjD7JFmVduCQ07Eca51E-316">
          <mxGeometry width="211" height="49" as="geometry">
            <mxRectangle width="211" height="49" as="alternateBounds" />
          </mxGeometry>
        </mxCell>
        <mxCell id="bjD7JFmVduCQ07Eca51E-404" style="shape=partialRectangle;html=1;whiteSpace=wrap;connectable=0;overflow=hidden;fillColor=#d0cee2;top=0;left=0;bottom=0;right=0;pointerEvents=1;strokeColor=#56517e;" vertex="1" parent="bjD7JFmVduCQ07Eca51E-316">
          <mxGeometry x="211" width="213" height="49" as="geometry">
            <mxRectangle width="213" height="49" as="alternateBounds" />
          </mxGeometry>
        </mxCell>
        <mxCell id="bjD7JFmVduCQ07Eca51E-318" value="" style="shape=partialRectangle;html=1;whiteSpace=wrap;connectable=0;overflow=hidden;fillColor=none;top=0;left=0;bottom=0;right=0;pointerEvents=1;" vertex="1" parent="bjD7JFmVduCQ07Eca51E-316">
          <mxGeometry x="424" width="210" height="49" as="geometry">
            <mxRectangle width="210" height="49" as="alternateBounds" />
          </mxGeometry>
        </mxCell>
        <mxCell id="bjD7JFmVduCQ07Eca51E-384" style="shape=partialRectangle;html=1;whiteSpace=wrap;connectable=0;overflow=hidden;fillColor=none;top=0;left=0;bottom=0;right=0;pointerEvents=1;" vertex="1" parent="bjD7JFmVduCQ07Eca51E-316">
          <mxGeometry x="634" width="211" height="49" as="geometry">
            <mxRectangle width="211" height="49" as="alternateBounds" />
          </mxGeometry>
        </mxCell>
        <mxCell id="bjD7JFmVduCQ07Eca51E-319" value="" style="shape=partialRectangle;html=1;whiteSpace=wrap;connectable=0;overflow=hidden;fillColor=none;top=0;left=0;bottom=0;right=0;pointerEvents=1;" vertex="1" parent="bjD7JFmVduCQ07Eca51E-316">
          <mxGeometry x="845" width="212" height="49" as="geometry">
            <mxRectangle width="212" height="49" as="alternateBounds" />
          </mxGeometry>
        </mxCell>
        <mxCell id="bjD7JFmVduCQ07Eca51E-320" value="" style="shape=partialRectangle;html=1;whiteSpace=wrap;connectable=0;strokeColor=#d4d4d4;overflow=hidden;fillColor=none;top=0;left=0;bottom=0;right=0;pointerEvents=1;" vertex="1" parent="bjD7JFmVduCQ07Eca51E-316">
          <mxGeometry x="1057" width="212" height="49" as="geometry">
            <mxRectangle width="212" height="49" as="alternateBounds" />
          </mxGeometry>
        </mxCell>
        <mxCell id="bjD7JFmVduCQ07Eca51E-452" style="shape=partialRectangle;html=1;whiteSpace=wrap;connectable=0;strokeColor=#d4d4d4;overflow=hidden;fillColor=none;top=0;left=0;bottom=0;right=0;pointerEvents=1;" vertex="1" parent="bjD7JFmVduCQ07Eca51E-316">
          <mxGeometry x="1269" width="212" height="49" as="geometry">
            <mxRectangle width="212" height="49" as="alternateBounds" />
          </mxGeometry>
        </mxCell>
        <mxCell id="bjD7JFmVduCQ07Eca51E-321" value="" style="shape=tableRow;horizontal=0;startSize=0;swimlaneHead=0;swimlaneBody=0;strokeColor=#d4d4d4;top=0;left=0;bottom=0;right=0;collapsible=0;dropTarget=0;fillColor=none;points=[[0,0.5],[1,0.5]];portConstraint=eastwest;" vertex="1" parent="bjD7JFmVduCQ07Eca51E-275">
          <mxGeometry y="430" width="1480.79" height="48" as="geometry" />
        </mxCell>
        <mxCell id="bjD7JFmVduCQ07Eca51E-322" value="" style="shape=partialRectangle;html=1;whiteSpace=wrap;connectable=0;strokeColor=#b46504;overflow=hidden;fillColor=#fad7ac;top=0;left=0;bottom=0;right=0;pointerEvents=1;" vertex="1" parent="bjD7JFmVduCQ07Eca51E-321">
          <mxGeometry width="211" height="48" as="geometry">
            <mxRectangle width="211" height="48" as="alternateBounds" />
          </mxGeometry>
        </mxCell>
        <mxCell id="bjD7JFmVduCQ07Eca51E-405" style="shape=partialRectangle;html=1;whiteSpace=wrap;connectable=0;overflow=hidden;fillColor=none;top=0;left=0;bottom=0;right=0;pointerEvents=1;" vertex="1" parent="bjD7JFmVduCQ07Eca51E-321">
          <mxGeometry x="211" width="213" height="48" as="geometry">
            <mxRectangle width="213" height="48" as="alternateBounds" />
          </mxGeometry>
        </mxCell>
        <mxCell id="bjD7JFmVduCQ07Eca51E-323" value="" style="shape=partialRectangle;html=1;whiteSpace=wrap;connectable=0;overflow=hidden;fillColor=#fad9d5;top=0;left=0;bottom=0;right=0;pointerEvents=1;strokeColor=#ae4132;" vertex="1" parent="bjD7JFmVduCQ07Eca51E-321">
          <mxGeometry x="424" width="210" height="48" as="geometry">
            <mxRectangle width="210" height="48" as="alternateBounds" />
          </mxGeometry>
        </mxCell>
        <mxCell id="bjD7JFmVduCQ07Eca51E-385" style="shape=partialRectangle;html=1;whiteSpace=wrap;connectable=0;overflow=hidden;fillColor=none;top=0;left=0;bottom=0;right=0;pointerEvents=1;" vertex="1" parent="bjD7JFmVduCQ07Eca51E-321">
          <mxGeometry x="634" width="211" height="48" as="geometry">
            <mxRectangle width="211" height="48" as="alternateBounds" />
          </mxGeometry>
        </mxCell>
        <mxCell id="bjD7JFmVduCQ07Eca51E-324" value="" style="shape=partialRectangle;html=1;whiteSpace=wrap;connectable=0;overflow=hidden;fillColor=#fad9d5;top=0;left=0;bottom=0;right=0;pointerEvents=1;strokeColor=#ae4132;" vertex="1" parent="bjD7JFmVduCQ07Eca51E-321">
          <mxGeometry x="845" width="212" height="48" as="geometry">
            <mxRectangle width="212" height="48" as="alternateBounds" />
          </mxGeometry>
        </mxCell>
        <mxCell id="bjD7JFmVduCQ07Eca51E-325" value="" style="shape=partialRectangle;html=1;whiteSpace=wrap;connectable=0;strokeColor=#d4d4d4;overflow=hidden;fillColor=none;top=0;left=0;bottom=0;right=0;pointerEvents=1;" vertex="1" parent="bjD7JFmVduCQ07Eca51E-321">
          <mxGeometry x="1057" width="212" height="48" as="geometry">
            <mxRectangle width="212" height="48" as="alternateBounds" />
          </mxGeometry>
        </mxCell>
        <mxCell id="bjD7JFmVduCQ07Eca51E-453" style="shape=partialRectangle;html=1;whiteSpace=wrap;connectable=0;strokeColor=#d4d4d4;overflow=hidden;fillColor=none;top=0;left=0;bottom=0;right=0;pointerEvents=1;" vertex="1" parent="bjD7JFmVduCQ07Eca51E-321">
          <mxGeometry x="1269" width="212" height="48" as="geometry">
            <mxRectangle width="212" height="48" as="alternateBounds" />
          </mxGeometry>
        </mxCell>
        <mxCell id="bjD7JFmVduCQ07Eca51E-326" value="" style="shape=tableRow;horizontal=0;startSize=0;swimlaneHead=0;swimlaneBody=0;strokeColor=#d4d4d4;top=0;left=0;bottom=0;right=0;collapsible=0;dropTarget=0;fillColor=none;points=[[0,0.5],[1,0.5]];portConstraint=eastwest;" vertex="1" parent="bjD7JFmVduCQ07Eca51E-275">
          <mxGeometry y="478" width="1480.79" height="48" as="geometry" />
        </mxCell>
        <mxCell id="bjD7JFmVduCQ07Eca51E-327" value="" style="shape=partialRectangle;html=1;whiteSpace=wrap;connectable=0;overflow=hidden;fillColor=#d0cee2;top=0;left=0;bottom=0;right=0;pointerEvents=1;strokeColor=#56517e;" vertex="1" parent="bjD7JFmVduCQ07Eca51E-326">
          <mxGeometry width="211" height="48" as="geometry">
            <mxRectangle width="211" height="48" as="alternateBounds" />
          </mxGeometry>
        </mxCell>
        <mxCell id="bjD7JFmVduCQ07Eca51E-406" style="shape=partialRectangle;html=1;whiteSpace=wrap;connectable=0;overflow=hidden;fillColor=#fad7ac;top=0;left=0;bottom=0;right=0;pointerEvents=1;strokeColor=#b46504;" vertex="1" parent="bjD7JFmVduCQ07Eca51E-326">
          <mxGeometry x="211" width="213" height="48" as="geometry">
            <mxRectangle width="213" height="48" as="alternateBounds" />
          </mxGeometry>
        </mxCell>
        <mxCell id="bjD7JFmVduCQ07Eca51E-328" value="" style="shape=partialRectangle;html=1;whiteSpace=wrap;connectable=0;overflow=hidden;fillColor=none;top=0;left=0;bottom=0;right=0;pointerEvents=1;" vertex="1" parent="bjD7JFmVduCQ07Eca51E-326">
          <mxGeometry x="424" width="210" height="48" as="geometry">
            <mxRectangle width="210" height="48" as="alternateBounds" />
          </mxGeometry>
        </mxCell>
        <mxCell id="bjD7JFmVduCQ07Eca51E-386" style="shape=partialRectangle;html=1;whiteSpace=wrap;connectable=0;overflow=hidden;fillColor=none;top=0;left=0;bottom=0;right=0;pointerEvents=1;" vertex="1" parent="bjD7JFmVduCQ07Eca51E-326">
          <mxGeometry x="634" width="211" height="48" as="geometry">
            <mxRectangle width="211" height="48" as="alternateBounds" />
          </mxGeometry>
        </mxCell>
        <mxCell id="bjD7JFmVduCQ07Eca51E-329" value="" style="shape=partialRectangle;html=1;whiteSpace=wrap;connectable=0;overflow=hidden;fillColor=#fad9d5;top=0;left=0;bottom=0;right=0;pointerEvents=1;strokeColor=#ae4132;" vertex="1" parent="bjD7JFmVduCQ07Eca51E-326">
          <mxGeometry x="845" width="212" height="48" as="geometry">
            <mxRectangle width="212" height="48" as="alternateBounds" />
          </mxGeometry>
        </mxCell>
        <mxCell id="bjD7JFmVduCQ07Eca51E-330" value="" style="shape=partialRectangle;html=1;whiteSpace=wrap;connectable=0;strokeColor=#d4d4d4;overflow=hidden;fillColor=none;top=0;left=0;bottom=0;right=0;pointerEvents=1;" vertex="1" parent="bjD7JFmVduCQ07Eca51E-326">
          <mxGeometry x="1057" width="212" height="48" as="geometry">
            <mxRectangle width="212" height="48" as="alternateBounds" />
          </mxGeometry>
        </mxCell>
        <mxCell id="bjD7JFmVduCQ07Eca51E-454" style="shape=partialRectangle;html=1;whiteSpace=wrap;connectable=0;strokeColor=#d4d4d4;overflow=hidden;fillColor=none;top=0;left=0;bottom=0;right=0;pointerEvents=1;" vertex="1" parent="bjD7JFmVduCQ07Eca51E-326">
          <mxGeometry x="1269" width="212" height="48" as="geometry">
            <mxRectangle width="212" height="48" as="alternateBounds" />
          </mxGeometry>
        </mxCell>
        <mxCell id="bjD7JFmVduCQ07Eca51E-331" value="" style="shape=tableRow;horizontal=0;startSize=0;swimlaneHead=0;swimlaneBody=0;strokeColor=#d4d4d4;top=0;left=0;bottom=0;right=0;collapsible=0;dropTarget=0;fillColor=none;points=[[0,0.5],[1,0.5]];portConstraint=eastwest;" vertex="1" parent="bjD7JFmVduCQ07Eca51E-275">
          <mxGeometry y="526" width="1480.79" height="50" as="geometry" />
        </mxCell>
        <mxCell id="bjD7JFmVduCQ07Eca51E-332" value="" style="shape=partialRectangle;html=1;whiteSpace=wrap;connectable=0;overflow=hidden;fillColor=#d0cee2;top=0;left=0;bottom=0;right=0;pointerEvents=1;strokeColor=#56517e;" vertex="1" parent="bjD7JFmVduCQ07Eca51E-331">
          <mxGeometry width="211" height="50" as="geometry">
            <mxRectangle width="211" height="50" as="alternateBounds" />
          </mxGeometry>
        </mxCell>
        <mxCell id="bjD7JFmVduCQ07Eca51E-407" style="shape=partialRectangle;html=1;whiteSpace=wrap;connectable=0;overflow=hidden;fillColor=#fad7ac;top=0;left=0;bottom=0;right=0;pointerEvents=1;strokeColor=#b46504;" vertex="1" parent="bjD7JFmVduCQ07Eca51E-331">
          <mxGeometry x="211" width="213" height="50" as="geometry">
            <mxRectangle width="213" height="50" as="alternateBounds" />
          </mxGeometry>
        </mxCell>
        <mxCell id="bjD7JFmVduCQ07Eca51E-333" value="" style="shape=partialRectangle;html=1;whiteSpace=wrap;connectable=0;overflow=hidden;fillColor=none;top=0;left=0;bottom=0;right=0;pointerEvents=1;" vertex="1" parent="bjD7JFmVduCQ07Eca51E-331">
          <mxGeometry x="424" width="210" height="50" as="geometry">
            <mxRectangle width="210" height="50" as="alternateBounds" />
          </mxGeometry>
        </mxCell>
        <mxCell id="bjD7JFmVduCQ07Eca51E-387" style="shape=partialRectangle;html=1;whiteSpace=wrap;connectable=0;overflow=hidden;fillColor=#b1ddf0;top=0;left=0;bottom=0;right=0;pointerEvents=1;strokeColor=#10739e;" vertex="1" parent="bjD7JFmVduCQ07Eca51E-331">
          <mxGeometry x="634" width="211" height="50" as="geometry">
            <mxRectangle width="211" height="50" as="alternateBounds" />
          </mxGeometry>
        </mxCell>
        <mxCell id="bjD7JFmVduCQ07Eca51E-334" value="" style="shape=partialRectangle;html=1;whiteSpace=wrap;connectable=0;overflow=hidden;fillColor=none;top=0;left=0;bottom=0;right=0;pointerEvents=1;" vertex="1" parent="bjD7JFmVduCQ07Eca51E-331">
          <mxGeometry x="845" width="212" height="50" as="geometry">
            <mxRectangle width="212" height="50" as="alternateBounds" />
          </mxGeometry>
        </mxCell>
        <mxCell id="bjD7JFmVduCQ07Eca51E-335" value="" style="shape=partialRectangle;html=1;whiteSpace=wrap;connectable=0;strokeColor=#d4d4d4;overflow=hidden;fillColor=none;top=0;left=0;bottom=0;right=0;pointerEvents=1;" vertex="1" parent="bjD7JFmVduCQ07Eca51E-331">
          <mxGeometry x="1057" width="212" height="50" as="geometry">
            <mxRectangle width="212" height="50" as="alternateBounds" />
          </mxGeometry>
        </mxCell>
        <mxCell id="bjD7JFmVduCQ07Eca51E-455" style="shape=partialRectangle;html=1;whiteSpace=wrap;connectable=0;strokeColor=#d4d4d4;overflow=hidden;fillColor=none;top=0;left=0;bottom=0;right=0;pointerEvents=1;" vertex="1" parent="bjD7JFmVduCQ07Eca51E-331">
          <mxGeometry x="1269" width="212" height="50" as="geometry">
            <mxRectangle width="212" height="50" as="alternateBounds" />
          </mxGeometry>
        </mxCell>
        <mxCell id="bjD7JFmVduCQ07Eca51E-336" value="" style="shape=tableRow;horizontal=0;startSize=0;swimlaneHead=0;swimlaneBody=0;strokeColor=#d4d4d4;top=0;left=0;bottom=0;right=0;collapsible=0;dropTarget=0;fillColor=none;points=[[0,0.5],[1,0.5]];portConstraint=eastwest;" vertex="1" parent="bjD7JFmVduCQ07Eca51E-275">
          <mxGeometry y="576" width="1480.79" height="47" as="geometry" />
        </mxCell>
        <mxCell id="bjD7JFmVduCQ07Eca51E-337" value="" style="shape=partialRectangle;html=1;whiteSpace=wrap;connectable=0;overflow=hidden;fillColor=none;top=0;left=0;bottom=0;right=0;pointerEvents=1;" vertex="1" parent="bjD7JFmVduCQ07Eca51E-336">
          <mxGeometry width="211" height="47" as="geometry">
            <mxRectangle width="211" height="47" as="alternateBounds" />
          </mxGeometry>
        </mxCell>
        <mxCell id="bjD7JFmVduCQ07Eca51E-408" style="shape=partialRectangle;html=1;whiteSpace=wrap;connectable=0;overflow=hidden;fillColor=none;top=0;left=0;bottom=0;right=0;pointerEvents=1;" vertex="1" parent="bjD7JFmVduCQ07Eca51E-336">
          <mxGeometry x="211" width="213" height="47" as="geometry">
            <mxRectangle width="213" height="47" as="alternateBounds" />
          </mxGeometry>
        </mxCell>
        <mxCell id="bjD7JFmVduCQ07Eca51E-338" value="" style="shape=partialRectangle;html=1;whiteSpace=wrap;connectable=0;overflow=hidden;fillColor=none;top=0;left=0;bottom=0;right=0;pointerEvents=1;" vertex="1" parent="bjD7JFmVduCQ07Eca51E-336">
          <mxGeometry x="424" width="210" height="47" as="geometry">
            <mxRectangle width="210" height="47" as="alternateBounds" />
          </mxGeometry>
        </mxCell>
        <mxCell id="bjD7JFmVduCQ07Eca51E-388" style="shape=partialRectangle;html=1;whiteSpace=wrap;connectable=0;overflow=hidden;fillColor=none;top=0;left=0;bottom=0;right=0;pointerEvents=1;" vertex="1" parent="bjD7JFmVduCQ07Eca51E-336">
          <mxGeometry x="634" width="211" height="47" as="geometry">
            <mxRectangle width="211" height="47" as="alternateBounds" />
          </mxGeometry>
        </mxCell>
        <mxCell id="bjD7JFmVduCQ07Eca51E-339" value="" style="shape=partialRectangle;html=1;whiteSpace=wrap;connectable=0;overflow=hidden;fillColor=none;top=0;left=0;bottom=0;right=0;pointerEvents=1;" vertex="1" parent="bjD7JFmVduCQ07Eca51E-336">
          <mxGeometry x="845" width="212" height="47" as="geometry">
            <mxRectangle width="212" height="47" as="alternateBounds" />
          </mxGeometry>
        </mxCell>
        <mxCell id="bjD7JFmVduCQ07Eca51E-340" value="" style="shape=partialRectangle;html=1;whiteSpace=wrap;connectable=0;strokeColor=#d4d4d4;overflow=hidden;fillColor=none;top=0;left=0;bottom=0;right=0;pointerEvents=1;" vertex="1" parent="bjD7JFmVduCQ07Eca51E-336">
          <mxGeometry x="1057" width="212" height="47" as="geometry">
            <mxRectangle width="212" height="47" as="alternateBounds" />
          </mxGeometry>
        </mxCell>
        <mxCell id="bjD7JFmVduCQ07Eca51E-456" style="shape=partialRectangle;html=1;whiteSpace=wrap;connectable=0;strokeColor=#d4d4d4;overflow=hidden;fillColor=none;top=0;left=0;bottom=0;right=0;pointerEvents=1;" vertex="1" parent="bjD7JFmVduCQ07Eca51E-336">
          <mxGeometry x="1269" width="212" height="47" as="geometry">
            <mxRectangle width="212" height="47" as="alternateBounds" />
          </mxGeometry>
        </mxCell>
        <mxCell id="bjD7JFmVduCQ07Eca51E-341" value="" style="shape=tableRow;horizontal=0;startSize=0;swimlaneHead=0;swimlaneBody=0;strokeColor=#d4d4d4;top=0;left=0;bottom=0;right=0;collapsible=0;dropTarget=0;fillColor=none;points=[[0,0.5],[1,0.5]];portConstraint=eastwest;" vertex="1" parent="bjD7JFmVduCQ07Eca51E-275">
          <mxGeometry y="623" width="1480.79" height="49" as="geometry" />
        </mxCell>
        <mxCell id="bjD7JFmVduCQ07Eca51E-342" value="" style="shape=partialRectangle;html=1;whiteSpace=wrap;connectable=0;overflow=hidden;fillColor=none;top=0;left=0;bottom=0;right=0;pointerEvents=1;" vertex="1" parent="bjD7JFmVduCQ07Eca51E-341">
          <mxGeometry width="211" height="49" as="geometry">
            <mxRectangle width="211" height="49" as="alternateBounds" />
          </mxGeometry>
        </mxCell>
        <mxCell id="bjD7JFmVduCQ07Eca51E-409" style="shape=partialRectangle;html=1;whiteSpace=wrap;connectable=0;overflow=hidden;fillColor=none;top=0;left=0;bottom=0;right=0;pointerEvents=1;" vertex="1" parent="bjD7JFmVduCQ07Eca51E-341">
          <mxGeometry x="211" width="213" height="49" as="geometry">
            <mxRectangle width="213" height="49" as="alternateBounds" />
          </mxGeometry>
        </mxCell>
        <mxCell id="bjD7JFmVduCQ07Eca51E-343" value="" style="shape=partialRectangle;html=1;whiteSpace=wrap;connectable=0;overflow=hidden;fillColor=none;top=0;left=0;bottom=0;right=0;pointerEvents=1;" vertex="1" parent="bjD7JFmVduCQ07Eca51E-341">
          <mxGeometry x="424" width="210" height="49" as="geometry">
            <mxRectangle width="210" height="49" as="alternateBounds" />
          </mxGeometry>
        </mxCell>
        <mxCell id="bjD7JFmVduCQ07Eca51E-389" style="shape=partialRectangle;html=1;whiteSpace=wrap;connectable=0;overflow=hidden;fillColor=none;top=0;left=0;bottom=0;right=0;pointerEvents=1;" vertex="1" parent="bjD7JFmVduCQ07Eca51E-341">
          <mxGeometry x="634" width="211" height="49" as="geometry">
            <mxRectangle width="211" height="49" as="alternateBounds" />
          </mxGeometry>
        </mxCell>
        <mxCell id="bjD7JFmVduCQ07Eca51E-344" value="" style="shape=partialRectangle;html=1;whiteSpace=wrap;connectable=0;overflow=hidden;fillColor=none;top=0;left=0;bottom=0;right=0;pointerEvents=1;" vertex="1" parent="bjD7JFmVduCQ07Eca51E-341">
          <mxGeometry x="845" width="212" height="49" as="geometry">
            <mxRectangle width="212" height="49" as="alternateBounds" />
          </mxGeometry>
        </mxCell>
        <mxCell id="bjD7JFmVduCQ07Eca51E-345" value="" style="shape=partialRectangle;html=1;whiteSpace=wrap;connectable=0;strokeColor=#d4d4d4;overflow=hidden;fillColor=none;top=0;left=0;bottom=0;right=0;pointerEvents=1;" vertex="1" parent="bjD7JFmVduCQ07Eca51E-341">
          <mxGeometry x="1057" width="212" height="49" as="geometry">
            <mxRectangle width="212" height="49" as="alternateBounds" />
          </mxGeometry>
        </mxCell>
        <mxCell id="bjD7JFmVduCQ07Eca51E-457" style="shape=partialRectangle;html=1;whiteSpace=wrap;connectable=0;strokeColor=#d4d4d4;overflow=hidden;fillColor=none;top=0;left=0;bottom=0;right=0;pointerEvents=1;" vertex="1" parent="bjD7JFmVduCQ07Eca51E-341">
          <mxGeometry x="1269" width="212" height="49" as="geometry">
            <mxRectangle width="212" height="49" as="alternateBounds" />
          </mxGeometry>
        </mxCell>
        <mxCell id="bjD7JFmVduCQ07Eca51E-346" value="" style="shape=tableRow;horizontal=0;startSize=0;swimlaneHead=0;swimlaneBody=0;strokeColor=#d4d4d4;top=0;left=0;bottom=0;right=0;collapsible=0;dropTarget=0;fillColor=none;points=[[0,0.5],[1,0.5]];portConstraint=eastwest;" vertex="1" parent="bjD7JFmVduCQ07Eca51E-275">
          <mxGeometry y="672" width="1480.79" height="48" as="geometry" />
        </mxCell>
        <mxCell id="bjD7JFmVduCQ07Eca51E-347" value="" style="shape=partialRectangle;html=1;whiteSpace=wrap;connectable=0;overflow=hidden;fillColor=none;top=0;left=0;bottom=0;right=0;pointerEvents=1;" vertex="1" parent="bjD7JFmVduCQ07Eca51E-346">
          <mxGeometry width="211" height="48" as="geometry">
            <mxRectangle width="211" height="48" as="alternateBounds" />
          </mxGeometry>
        </mxCell>
        <mxCell id="bjD7JFmVduCQ07Eca51E-410" style="shape=partialRectangle;html=1;whiteSpace=wrap;connectable=0;overflow=hidden;fillColor=none;top=0;left=0;bottom=0;right=0;pointerEvents=1;" vertex="1" parent="bjD7JFmVduCQ07Eca51E-346">
          <mxGeometry x="211" width="213" height="48" as="geometry">
            <mxRectangle width="213" height="48" as="alternateBounds" />
          </mxGeometry>
        </mxCell>
        <mxCell id="bjD7JFmVduCQ07Eca51E-348" value="" style="shape=partialRectangle;html=1;whiteSpace=wrap;connectable=0;overflow=hidden;fillColor=none;top=0;left=0;bottom=0;right=0;pointerEvents=1;" vertex="1" parent="bjD7JFmVduCQ07Eca51E-346">
          <mxGeometry x="424" width="210" height="48" as="geometry">
            <mxRectangle width="210" height="48" as="alternateBounds" />
          </mxGeometry>
        </mxCell>
        <mxCell id="bjD7JFmVduCQ07Eca51E-390" style="shape=partialRectangle;html=1;whiteSpace=wrap;connectable=0;overflow=hidden;fillColor=none;top=0;left=0;bottom=0;right=0;pointerEvents=1;" vertex="1" parent="bjD7JFmVduCQ07Eca51E-346">
          <mxGeometry x="634" width="211" height="48" as="geometry">
            <mxRectangle width="211" height="48" as="alternateBounds" />
          </mxGeometry>
        </mxCell>
        <mxCell id="bjD7JFmVduCQ07Eca51E-349" value="" style="shape=partialRectangle;html=1;whiteSpace=wrap;connectable=0;overflow=hidden;fillColor=none;top=0;left=0;bottom=0;right=0;pointerEvents=1;" vertex="1" parent="bjD7JFmVduCQ07Eca51E-346">
          <mxGeometry x="845" width="212" height="48" as="geometry">
            <mxRectangle width="212" height="48" as="alternateBounds" />
          </mxGeometry>
        </mxCell>
        <mxCell id="bjD7JFmVduCQ07Eca51E-350" value="" style="shape=partialRectangle;html=1;whiteSpace=wrap;connectable=0;strokeColor=#d4d4d4;overflow=hidden;fillColor=none;top=0;left=0;bottom=0;right=0;pointerEvents=1;" vertex="1" parent="bjD7JFmVduCQ07Eca51E-346">
          <mxGeometry x="1057" width="212" height="48" as="geometry">
            <mxRectangle width="212" height="48" as="alternateBounds" />
          </mxGeometry>
        </mxCell>
        <mxCell id="bjD7JFmVduCQ07Eca51E-458" style="shape=partialRectangle;html=1;whiteSpace=wrap;connectable=0;strokeColor=#d4d4d4;overflow=hidden;fillColor=none;top=0;left=0;bottom=0;right=0;pointerEvents=1;" vertex="1" parent="bjD7JFmVduCQ07Eca51E-346">
          <mxGeometry x="1269" width="212" height="48" as="geometry">
            <mxRectangle width="212" height="48" as="alternateBounds" />
          </mxGeometry>
        </mxCell>
        <mxCell id="bjD7JFmVduCQ07Eca51E-351" value="" style="shape=tableRow;horizontal=0;startSize=0;swimlaneHead=0;swimlaneBody=0;strokeColor=#d4d4d4;top=0;left=0;bottom=0;right=0;collapsible=0;dropTarget=0;fillColor=none;points=[[0,0.5],[1,0.5]];portConstraint=eastwest;" vertex="1" parent="bjD7JFmVduCQ07Eca51E-275">
          <mxGeometry y="720" width="1480.79" height="47" as="geometry" />
        </mxCell>
        <mxCell id="bjD7JFmVduCQ07Eca51E-352" value="" style="shape=partialRectangle;html=1;whiteSpace=wrap;connectable=0;overflow=hidden;fillColor=none;top=0;left=0;bottom=0;right=0;pointerEvents=1;" vertex="1" parent="bjD7JFmVduCQ07Eca51E-351">
          <mxGeometry width="211" height="47" as="geometry">
            <mxRectangle width="211" height="47" as="alternateBounds" />
          </mxGeometry>
        </mxCell>
        <mxCell id="bjD7JFmVduCQ07Eca51E-411" style="shape=partialRectangle;html=1;whiteSpace=wrap;connectable=0;overflow=hidden;fillColor=none;top=0;left=0;bottom=0;right=0;pointerEvents=1;" vertex="1" parent="bjD7JFmVduCQ07Eca51E-351">
          <mxGeometry x="211" width="213" height="47" as="geometry">
            <mxRectangle width="213" height="47" as="alternateBounds" />
          </mxGeometry>
        </mxCell>
        <mxCell id="bjD7JFmVduCQ07Eca51E-353" value="" style="shape=partialRectangle;html=1;whiteSpace=wrap;connectable=0;overflow=hidden;fillColor=none;top=0;left=0;bottom=0;right=0;pointerEvents=1;" vertex="1" parent="bjD7JFmVduCQ07Eca51E-351">
          <mxGeometry x="424" width="210" height="47" as="geometry">
            <mxRectangle width="210" height="47" as="alternateBounds" />
          </mxGeometry>
        </mxCell>
        <mxCell id="bjD7JFmVduCQ07Eca51E-391" style="shape=partialRectangle;html=1;whiteSpace=wrap;connectable=0;overflow=hidden;fillColor=none;top=0;left=0;bottom=0;right=0;pointerEvents=1;" vertex="1" parent="bjD7JFmVduCQ07Eca51E-351">
          <mxGeometry x="634" width="211" height="47" as="geometry">
            <mxRectangle width="211" height="47" as="alternateBounds" />
          </mxGeometry>
        </mxCell>
        <mxCell id="bjD7JFmVduCQ07Eca51E-354" value="" style="shape=partialRectangle;html=1;whiteSpace=wrap;connectable=0;overflow=hidden;fillColor=none;top=0;left=0;bottom=0;right=0;pointerEvents=1;" vertex="1" parent="bjD7JFmVduCQ07Eca51E-351">
          <mxGeometry x="845" width="212" height="47" as="geometry">
            <mxRectangle width="212" height="47" as="alternateBounds" />
          </mxGeometry>
        </mxCell>
        <mxCell id="bjD7JFmVduCQ07Eca51E-355" value="" style="shape=partialRectangle;html=1;whiteSpace=wrap;connectable=0;strokeColor=#d4d4d4;overflow=hidden;fillColor=none;top=0;left=0;bottom=0;right=0;pointerEvents=1;" vertex="1" parent="bjD7JFmVduCQ07Eca51E-351">
          <mxGeometry x="1057" width="212" height="47" as="geometry">
            <mxRectangle width="212" height="47" as="alternateBounds" />
          </mxGeometry>
        </mxCell>
        <mxCell id="bjD7JFmVduCQ07Eca51E-459" style="shape=partialRectangle;html=1;whiteSpace=wrap;connectable=0;strokeColor=#d4d4d4;overflow=hidden;fillColor=none;top=0;left=0;bottom=0;right=0;pointerEvents=1;" vertex="1" parent="bjD7JFmVduCQ07Eca51E-351">
          <mxGeometry x="1269" width="212" height="47" as="geometry">
            <mxRectangle width="212" height="47" as="alternateBounds" />
          </mxGeometry>
        </mxCell>
        <mxCell id="bjD7JFmVduCQ07Eca51E-356" value="" style="shape=tableRow;horizontal=0;startSize=0;swimlaneHead=0;swimlaneBody=0;strokeColor=#d4d4d4;top=0;left=0;bottom=0;right=0;collapsible=0;dropTarget=0;fillColor=none;points=[[0,0.5],[1,0.5]];portConstraint=eastwest;" vertex="1" parent="bjD7JFmVduCQ07Eca51E-275">
          <mxGeometry y="767" width="1480.79" height="48" as="geometry" />
        </mxCell>
        <mxCell id="bjD7JFmVduCQ07Eca51E-357" value="" style="shape=partialRectangle;html=1;whiteSpace=wrap;connectable=0;strokeColor=#d4d4d4;overflow=hidden;fillColor=none;top=0;left=0;bottom=0;right=0;pointerEvents=1;" vertex="1" parent="bjD7JFmVduCQ07Eca51E-356">
          <mxGeometry width="211" height="48" as="geometry">
            <mxRectangle width="211" height="48" as="alternateBounds" />
          </mxGeometry>
        </mxCell>
        <mxCell id="bjD7JFmVduCQ07Eca51E-412" style="shape=partialRectangle;html=1;whiteSpace=wrap;connectable=0;strokeColor=#d4d4d4;overflow=hidden;fillColor=none;top=0;left=0;bottom=0;right=0;pointerEvents=1;" vertex="1" parent="bjD7JFmVduCQ07Eca51E-356">
          <mxGeometry x="211" width="213" height="48" as="geometry">
            <mxRectangle width="213" height="48" as="alternateBounds" />
          </mxGeometry>
        </mxCell>
        <mxCell id="bjD7JFmVduCQ07Eca51E-358" value="" style="shape=partialRectangle;html=1;whiteSpace=wrap;connectable=0;strokeColor=#d4d4d4;overflow=hidden;fillColor=none;top=0;left=0;bottom=0;right=0;pointerEvents=1;" vertex="1" parent="bjD7JFmVduCQ07Eca51E-356">
          <mxGeometry x="424" width="210" height="48" as="geometry">
            <mxRectangle width="210" height="48" as="alternateBounds" />
          </mxGeometry>
        </mxCell>
        <mxCell id="bjD7JFmVduCQ07Eca51E-392" style="shape=partialRectangle;html=1;whiteSpace=wrap;connectable=0;strokeColor=#d4d4d4;overflow=hidden;fillColor=none;top=0;left=0;bottom=0;right=0;pointerEvents=1;" vertex="1" parent="bjD7JFmVduCQ07Eca51E-356">
          <mxGeometry x="634" width="211" height="48" as="geometry">
            <mxRectangle width="211" height="48" as="alternateBounds" />
          </mxGeometry>
        </mxCell>
        <mxCell id="bjD7JFmVduCQ07Eca51E-359" value="" style="shape=partialRectangle;html=1;whiteSpace=wrap;connectable=0;strokeColor=#d4d4d4;overflow=hidden;fillColor=none;top=0;left=0;bottom=0;right=0;pointerEvents=1;" vertex="1" parent="bjD7JFmVduCQ07Eca51E-356">
          <mxGeometry x="845" width="212" height="48" as="geometry">
            <mxRectangle width="212" height="48" as="alternateBounds" />
          </mxGeometry>
        </mxCell>
        <mxCell id="bjD7JFmVduCQ07Eca51E-360" value="" style="shape=partialRectangle;html=1;whiteSpace=wrap;connectable=0;strokeColor=#d4d4d4;overflow=hidden;fillColor=none;top=0;left=0;bottom=0;right=0;pointerEvents=1;" vertex="1" parent="bjD7JFmVduCQ07Eca51E-356">
          <mxGeometry x="1057" width="212" height="48" as="geometry">
            <mxRectangle width="212" height="48" as="alternateBounds" />
          </mxGeometry>
        </mxCell>
        <mxCell id="bjD7JFmVduCQ07Eca51E-460" style="shape=partialRectangle;html=1;whiteSpace=wrap;connectable=0;strokeColor=#d4d4d4;overflow=hidden;fillColor=none;top=0;left=0;bottom=0;right=0;pointerEvents=1;strokeWidth=2;" vertex="1" parent="bjD7JFmVduCQ07Eca51E-356">
          <mxGeometry x="1269" width="212" height="48" as="geometry">
            <mxRectangle width="212" height="48" as="alternateBounds" />
          </mxGeometry>
        </mxCell>
        <mxCell id="bjD7JFmVduCQ07Eca51E-494" value="02:00" style="text;html=1;align=center;verticalAlign=middle;whiteSpace=wrap;rounded=0;" vertex="1" parent="bjD7JFmVduCQ07Eca51E-40">
          <mxGeometry x="-23.72791865794685" y="81.31914893617021" width="47.10875331564987" height="29.04255319148936" as="geometry" />
        </mxCell>
        <mxCell id="bjD7JFmVduCQ07Eca51E-496" value="04:00" style="text;html=1;align=center;verticalAlign=middle;whiteSpace=wrap;rounded=0;" vertex="1" parent="bjD7JFmVduCQ07Eca51E-40">
          <mxGeometry x="-23.724078954643456" y="124.9468085106383" width="47.10875331564987" height="29.04255319148936" as="geometry" />
        </mxCell>
        <mxCell id="bjD7JFmVduCQ07Eca51E-498" value="06:00" style="text;html=1;align=center;verticalAlign=middle;whiteSpace=wrap;rounded=0;" vertex="1" parent="bjD7JFmVduCQ07Eca51E-40">
          <mxGeometry x="-23.72791865794685" y="173.38297872340425" width="47.10875331564987" height="29.04255319148936" as="geometry" />
        </mxCell>
        <mxCell id="bjD7JFmVduCQ07Eca51E-499" value="07:00" style="text;html=1;align=center;verticalAlign=middle;whiteSpace=wrap;rounded=0;" vertex="1" parent="bjD7JFmVduCQ07Eca51E-40">
          <mxGeometry x="-23.72791865794685" y="223.81914893617022" width="47.10875331564987" height="29.04255319148936" as="geometry" />
        </mxCell>
        <mxCell id="bjD7JFmVduCQ07Eca51E-500" value="08:00" style="text;html=1;align=center;verticalAlign=middle;whiteSpace=wrap;rounded=0;" vertex="1" parent="bjD7JFmVduCQ07Eca51E-40">
          <mxGeometry x="-23.72791865794685" y="270.28723404255317" width="47.10875331564987" height="29.04255319148936" as="geometry" />
        </mxCell>
        <mxCell id="bjD7JFmVduCQ07Eca51E-501" value="09:00" style="text;html=1;align=center;verticalAlign=middle;whiteSpace=wrap;rounded=0;" vertex="1" parent="bjD7JFmVduCQ07Eca51E-40">
          <mxGeometry x="-23.724078954643456" y="317.7872340425532" width="47.10875331564987" height="29.04255319148936" as="geometry" />
        </mxCell>
        <mxCell id="bjD7JFmVduCQ07Eca51E-502" value="10:00" style="text;html=1;align=center;verticalAlign=middle;whiteSpace=wrap;rounded=0;" vertex="1" parent="bjD7JFmVduCQ07Eca51E-40">
          <mxGeometry x="-23.157626880758524" y="367.2872340425532" width="45.53846153846154" height="28.074468085106382" as="geometry" />
        </mxCell>
        <mxCell id="bjD7JFmVduCQ07Eca51E-503" value="11:00" style="text;html=1;align=center;verticalAlign=middle;whiteSpace=wrap;rounded=0;" vertex="1" parent="bjD7JFmVduCQ07Eca51E-40">
          <mxGeometry x="-23.940737516782043" y="413.6914893617021" width="47.10875331564987" height="29.04255319148936" as="geometry" />
        </mxCell>
        <mxCell id="bjD7JFmVduCQ07Eca51E-504" value="12:00" style="text;html=1;align=center;verticalAlign=middle;whiteSpace=wrap;rounded=0;" vertex="1" parent="bjD7JFmVduCQ07Eca51E-40">
          <mxGeometry x="-23.94480802192333" y="461.22340425531917" width="47.10875331564987" height="29.04255319148936" as="geometry" />
        </mxCell>
        <mxCell id="bjD7JFmVduCQ07Eca51E-505" value="13:00" style="text;html=1;align=center;verticalAlign=middle;whiteSpace=wrap;rounded=0;" vertex="1" parent="bjD7JFmVduCQ07Eca51E-40">
          <mxGeometry x="-23.94480802192333" y="509.6595744680851" width="47.10875331564987" height="29.04255319148936" as="geometry" />
        </mxCell>
        <mxCell id="bjD7JFmVduCQ07Eca51E-506" value="14:00" style="text;html=1;align=center;verticalAlign=middle;whiteSpace=wrap;rounded=0;" vertex="1" parent="bjD7JFmVduCQ07Eca51E-40">
          <mxGeometry x="-23.735828866391525" y="558.1914893617021" width="47.10875331564987" height="29.04255319148936" as="geometry" />
        </mxCell>
        <mxCell id="bjD7JFmVduCQ07Eca51E-507" value="15:00" style="text;html=1;align=center;verticalAlign=middle;whiteSpace=wrap;rounded=0;" vertex="1" parent="bjD7JFmVduCQ07Eca51E-40">
          <mxGeometry x="-23.735828866391525" y="607.5957446808511" width="47.10875331564987" height="29.04255319148936" as="geometry" />
        </mxCell>
        <mxCell id="bjD7JFmVduCQ07Eca51E-508" value="16:00" style="text;html=1;align=center;verticalAlign=middle;whiteSpace=wrap;rounded=0;" vertex="1" parent="bjD7JFmVduCQ07Eca51E-40">
          <mxGeometry x="-23.735828866391525" y="656.063829787234" width="47.10875331564987" height="29.04255319148936" as="geometry" />
        </mxCell>
        <mxCell id="bjD7JFmVduCQ07Eca51E-509" value="17:00" style="text;html=1;align=center;verticalAlign=middle;whiteSpace=wrap;rounded=0;" vertex="1" parent="bjD7JFmVduCQ07Eca51E-40">
          <mxGeometry x="-23.530920216001025" y="702.563829787234" width="47.10875331564987" height="29.04255319148936" as="geometry" />
        </mxCell>
        <mxCell id="bjD7JFmVduCQ07Eca51E-510" value="18:00" style="text;html=1;align=center;verticalAlign=middle;whiteSpace=wrap;rounded=0;" vertex="1" parent="bjD7JFmVduCQ07Eca51E-40">
          <mxGeometry x="-23.735828866391525" y="752.031914893617" width="47.10875331564987" height="29.04255319148936" as="geometry" />
        </mxCell>
        <mxCell id="bjD7JFmVduCQ07Eca51E-512" value="20:00" style="text;html=1;align=center;verticalAlign=middle;whiteSpace=wrap;rounded=0;" vertex="1" parent="bjD7JFmVduCQ07Eca51E-40">
          <mxGeometry x="-23.526849710859725" y="799.468085106383" width="47.10875331564987" height="29.04255319148936" as="geometry" />
        </mxCell>
        <mxCell id="bjD7JFmVduCQ07Eca51E-514" value="22:00" style="text;html=1;align=center;verticalAlign=middle;whiteSpace=wrap;rounded=0;" vertex="1" parent="bjD7JFmVduCQ07Eca51E-40">
          <mxGeometry x="-23.530920216001025" y="847" width="47.10875331564987" height="29.04255319148936" as="geometry" />
        </mxCell>
        <mxCell id="bjD7JFmVduCQ07Eca51E-516" value="24&lt;span style=&quot;background-color: initial;&quot;&gt;:00&lt;/span&gt;" style="text;html=1;align=center;verticalAlign=middle;whiteSpace=wrap;rounded=0;" vertex="1" parent="bjD7JFmVduCQ07Eca51E-40">
          <mxGeometry x="-23.530920216001025" y="894.468085106383" width="47.10875331564987" height="29.04255319148936" as="geometry" />
        </mxCell>
        <mxCell id="bjD7JFmVduCQ07Eca51E-738" value="08:00" style="text;html=1;align=center;verticalAlign=middle;whiteSpace=wrap;rounded=0;" vertex="1" parent="bjD7JFmVduCQ07Eca51E-40">
          <mxGeometry x="187.0020813420532" y="269.28723404255317" width="47.10875331564987" height="29.04255319148936" as="geometry" />
        </mxCell>
        <mxCell id="bjD7JFmVduCQ07Eca51E-737" value="08:00" style="text;html=1;align=center;verticalAlign=middle;whiteSpace=wrap;rounded=0;" vertex="1" parent="bjD7JFmVduCQ07Eca51E-40">
          <mxGeometry x="398.0020813420532" y="269.28723404255317" width="47.10875331564987" height="29.04255319148936" as="geometry" />
        </mxCell>
        <mxCell id="bjD7JFmVduCQ07Eca51E-736" value="08:00" style="text;html=1;align=center;verticalAlign=middle;whiteSpace=wrap;rounded=0;" vertex="1" parent="bjD7JFmVduCQ07Eca51E-40">
          <mxGeometry x="608.0020813420533" y="269.28723404255317" width="47.10875331564987" height="29.04255319148936" as="geometry" />
        </mxCell>
        <mxCell id="bjD7JFmVduCQ07Eca51E-735" value="08:00" style="text;html=1;align=center;verticalAlign=middle;whiteSpace=wrap;rounded=0;" vertex="1" parent="bjD7JFmVduCQ07Eca51E-40">
          <mxGeometry x="1031.0020813420533" y="269.28723404255317" width="47.10875331564987" height="29.04255319148936" as="geometry" />
        </mxCell>
        <mxCell id="bjD7JFmVduCQ07Eca51E-740" value="09:00" style="text;html=1;align=center;verticalAlign=middle;whiteSpace=wrap;rounded=0;" vertex="1" parent="bjD7JFmVduCQ07Eca51E-40">
          <mxGeometry x="398.00592104535656" y="317.7872340425532" width="47.10875331564987" height="29.04255319148936" as="geometry" />
        </mxCell>
        <mxCell id="bjD7JFmVduCQ07Eca51E-739" value="09:00" style="text;html=1;align=center;verticalAlign=middle;whiteSpace=wrap;rounded=0;" vertex="1" parent="bjD7JFmVduCQ07Eca51E-40">
          <mxGeometry x="607.9959210453567" y="316.7872340425532" width="47.10875331564987" height="29.04255319148936" as="geometry" />
        </mxCell>
        <mxCell id="bjD7JFmVduCQ07Eca51E-742" value="09:00" style="text;html=1;align=center;verticalAlign=middle;whiteSpace=wrap;rounded=0;" vertex="1" parent="bjD7JFmVduCQ07Eca51E-40">
          <mxGeometry x="818.9959210453567" y="316.7872340425532" width="47.10875331564987" height="29.04255319148936" as="geometry" />
        </mxCell>
        <mxCell id="bjD7JFmVduCQ07Eca51E-741" value="09:00" style="text;html=1;align=center;verticalAlign=middle;whiteSpace=wrap;rounded=0;" vertex="1" parent="bjD7JFmVduCQ07Eca51E-40">
          <mxGeometry x="1030.9959210453567" y="316.7872340425532" width="47.10875331564987" height="29.04255319148936" as="geometry" />
        </mxCell>
        <mxCell id="bjD7JFmVduCQ07Eca51E-746" value="10:00" style="text;html=1;align=center;verticalAlign=middle;whiteSpace=wrap;rounded=0;" vertex="1" parent="bjD7JFmVduCQ07Eca51E-40">
          <mxGeometry x="186.0023731192415" y="366.2872340425532" width="45.53846153846154" height="28.074468085106382" as="geometry" />
        </mxCell>
        <mxCell id="bjD7JFmVduCQ07Eca51E-745" value="10:00" style="text;html=1;align=center;verticalAlign=middle;whiteSpace=wrap;rounded=0;" vertex="1" parent="bjD7JFmVduCQ07Eca51E-40">
          <mxGeometry x="608.5723731192415" y="366.2872340425532" width="45.53846153846154" height="28.074468085106382" as="geometry" />
        </mxCell>
        <mxCell id="bjD7JFmVduCQ07Eca51E-744" value="10:00" style="text;html=1;align=center;verticalAlign=middle;whiteSpace=wrap;rounded=0;" vertex="1" parent="bjD7JFmVduCQ07Eca51E-40">
          <mxGeometry x="820.0023731192414" y="366.2872340425532" width="45.53846153846154" height="28.074468085106382" as="geometry" />
        </mxCell>
        <mxCell id="bjD7JFmVduCQ07Eca51E-743" value="10:00" style="text;html=1;align=center;verticalAlign=middle;whiteSpace=wrap;rounded=0;" vertex="1" parent="bjD7JFmVduCQ07Eca51E-40">
          <mxGeometry x="1031.7823731192416" y="366.2872340425532" width="45.53846153846154" height="28.074468085106382" as="geometry" />
        </mxCell>
        <mxCell id="bjD7JFmVduCQ07Eca51E-749" value="11:00" style="text;html=1;align=center;verticalAlign=middle;whiteSpace=wrap;rounded=0;" vertex="1" parent="bjD7JFmVduCQ07Eca51E-40">
          <mxGeometry x="818.999262483218" y="414.6914893617021" width="47.10875331564987" height="29.04255319148936" as="geometry" />
        </mxCell>
        <mxCell id="bjD7JFmVduCQ07Eca51E-1283" value="12:00" style="text;html=1;align=center;verticalAlign=middle;whiteSpace=wrap;rounded=0;" vertex="1" parent="bjD7JFmVduCQ07Eca51E-40">
          <mxGeometry x="397.9951919780767" y="461.2234042553191" width="47.10875331564987" height="29.04255319148936" as="geometry" />
        </mxCell>
        <mxCell id="bjD7JFmVduCQ07Eca51E-1282" value="12:00" style="text;html=1;align=center;verticalAlign=middle;whiteSpace=wrap;rounded=0;" vertex="1" parent="bjD7JFmVduCQ07Eca51E-40">
          <mxGeometry x="607.5751919780766" y="461.2234042553191" width="47.10875331564987" height="29.04255319148936" as="geometry" />
        </mxCell>
        <mxCell id="bjD7JFmVduCQ07Eca51E-1281" value="12:00" style="text;html=1;align=center;verticalAlign=middle;whiteSpace=wrap;rounded=0;" vertex="1" parent="bjD7JFmVduCQ07Eca51E-40">
          <mxGeometry x="819.0051919780767" y="461.2234042553191" width="47.10875331564987" height="29.04255319148936" as="geometry" />
        </mxCell>
        <mxCell id="bjD7JFmVduCQ07Eca51E-1284" value="12:00" style="text;html=1;align=center;verticalAlign=middle;whiteSpace=wrap;rounded=0;" vertex="1" parent="bjD7JFmVduCQ07Eca51E-40">
          <mxGeometry x="1030.9951919780767" y="461.2234042553191" width="47.10875331564987" height="29.04255319148936" as="geometry" />
        </mxCell>
        <mxCell id="bjD7JFmVduCQ07Eca51E-1288" value="13:00" style="text;html=1;align=center;verticalAlign=middle;whiteSpace=wrap;rounded=0;" vertex="1" parent="bjD7JFmVduCQ07Eca51E-40">
          <mxGeometry x="184.99519197807672" y="511.6595744680851" width="47.10875331564987" height="29.04255319148936" as="geometry" />
        </mxCell>
        <mxCell id="bjD7JFmVduCQ07Eca51E-1287" value="13:00" style="text;html=1;align=center;verticalAlign=middle;whiteSpace=wrap;rounded=0;" vertex="1" parent="bjD7JFmVduCQ07Eca51E-40">
          <mxGeometry x="397.9951919780767" y="510.6595744680851" width="47.10875331564987" height="29.04255319148936" as="geometry" />
        </mxCell>
        <mxCell id="bjD7JFmVduCQ07Eca51E-1286" value="13:00" style="text;html=1;align=center;verticalAlign=middle;whiteSpace=wrap;rounded=0;" vertex="1" parent="bjD7JFmVduCQ07Eca51E-40">
          <mxGeometry x="607.9951919780767" y="510.6595744680851" width="47.10875331564987" height="29.04255319148936" as="geometry" />
        </mxCell>
        <mxCell id="bjD7JFmVduCQ07Eca51E-1285" value="13:00" style="text;html=1;align=center;verticalAlign=middle;whiteSpace=wrap;rounded=0;" vertex="1" parent="bjD7JFmVduCQ07Eca51E-40">
          <mxGeometry x="1030.7851919780767" y="510.6595744680851" width="47.10875331564987" height="29.04255319148936" as="geometry" />
        </mxCell>
        <mxCell id="bjD7JFmVduCQ07Eca51E-1291" value="14:00" style="text;html=1;align=center;verticalAlign=middle;whiteSpace=wrap;rounded=0;" vertex="1" parent="bjD7JFmVduCQ07Eca51E-40">
          <mxGeometry x="186.4341711336084" y="558.1914893617021" width="47.10875331564987" height="29.04255319148936" as="geometry" />
        </mxCell>
        <mxCell id="bjD7JFmVduCQ07Eca51E-1290" value="14:00" style="text;html=1;align=center;verticalAlign=middle;whiteSpace=wrap;rounded=0;" vertex="1" parent="bjD7JFmVduCQ07Eca51E-40">
          <mxGeometry x="398.00417113360845" y="558.1914893617021" width="47.10875331564987" height="29.04255319148936" as="geometry" />
        </mxCell>
        <mxCell id="bjD7JFmVduCQ07Eca51E-1289" value="14:00" style="text;html=1;align=center;verticalAlign=middle;whiteSpace=wrap;rounded=0;" vertex="1" parent="bjD7JFmVduCQ07Eca51E-40">
          <mxGeometry x="607.5741711336084" y="558.1914893617021" width="47.10875331564987" height="29.04255319148936" as="geometry" />
        </mxCell>
        <mxCell id="bjD7JFmVduCQ07Eca51E-1293" value="15:00" style="text;html=1;align=center;verticalAlign=middle;whiteSpace=wrap;rounded=0;" vertex="1" parent="bjD7JFmVduCQ07Eca51E-40">
          <mxGeometry x="819.0041711336085" y="606.5957446808511" width="47.10875331564987" height="29.04255319148936" as="geometry" />
        </mxCell>
        <mxCell id="bjD7JFmVduCQ07Eca51E-1292" value="15:00" style="text;html=1;align=center;verticalAlign=middle;whiteSpace=wrap;rounded=0;" vertex="1" parent="bjD7JFmVduCQ07Eca51E-40">
          <mxGeometry x="1030.7841711336084" y="606.5957446808511" width="47.10875331564987" height="29.04255319148936" as="geometry" />
        </mxCell>
        <mxCell id="bjD7JFmVduCQ07Eca51E-1295" value="16:00" style="text;html=1;align=center;verticalAlign=middle;whiteSpace=wrap;rounded=0;" vertex="1" parent="bjD7JFmVduCQ07Eca51E-40">
          <mxGeometry x="185.4341711336084" y="656.063829787234" width="47.10875331564987" height="29.04255319148936" as="geometry" />
        </mxCell>
        <mxCell id="bjD7JFmVduCQ07Eca51E-1294" value="16:00" style="text;html=1;align=center;verticalAlign=middle;whiteSpace=wrap;rounded=0;" vertex="1" parent="bjD7JFmVduCQ07Eca51E-40">
          <mxGeometry x="398.00417113360845" y="656.063829787234" width="47.10875331564987" height="29.04255319148936" as="geometry" />
        </mxCell>
        <mxCell id="bjD7JFmVduCQ07Eca51E-1296" value="16:00" style="text;html=1;align=center;verticalAlign=middle;whiteSpace=wrap;rounded=0;" vertex="1" parent="bjD7JFmVduCQ07Eca51E-40">
          <mxGeometry x="819.4341711336083" y="656.063829787234" width="47.10875331564987" height="29.04255319148936" as="geometry" />
        </mxCell>
        <mxCell id="bjD7JFmVduCQ07Eca51E-1297" value="&lt;font style=&quot;font-size: 15px;&quot;&gt;F1 Board meeting&lt;/font&gt;" style="text;html=1;align=center;verticalAlign=middle;whiteSpace=wrap;rounded=0;" vertex="1" parent="bjD7JFmVduCQ07Eca51E-40">
          <mxGeometry x="7" y="318.33" width="180" height="30" as="geometry" />
        </mxCell>
        <mxCell id="bjD7JFmVduCQ07Eca51E-1300" value="&lt;font style=&quot;font-size: 15px;&quot;&gt;F1 Meeting&lt;/font&gt;" style="text;html=1;align=center;verticalAlign=middle;whiteSpace=wrap;rounded=0;" vertex="1" parent="bjD7JFmVduCQ07Eca51E-40">
          <mxGeometry x="647.5999999999999" y="341.28999999999996" width="180" height="30" as="geometry" />
        </mxCell>
        <mxCell id="bjD7JFmVduCQ07Eca51E-1299" value="&lt;font style=&quot;font-size: 15px;&quot;&gt;F1 Startup meeting&lt;/font&gt;" style="text;html=1;align=center;verticalAlign=middle;whiteSpace=wrap;rounded=0;" vertex="1" parent="bjD7JFmVduCQ07Eca51E-40">
          <mxGeometry x="438" y="535.7" width="180" height="30" as="geometry" />
        </mxCell>
        <mxCell id="bjD7JFmVduCQ07Eca51E-1298" value="&lt;font style=&quot;font-size: 15px;&quot;&gt;F1 Economy meeting&lt;/font&gt;" style="text;html=1;align=center;verticalAlign=middle;whiteSpace=wrap;rounded=0;" vertex="1" parent="bjD7JFmVduCQ07Eca51E-40">
          <mxGeometry x="857" y="560.23" width="180" height="30" as="geometry" />
        </mxCell>
        <mxCell id="bjD7JFmVduCQ07Eca51E-1303" value="&lt;font style=&quot;font-size: 15px;&quot;&gt;F2 Economy meeting&lt;/font&gt;" style="text;html=1;align=center;verticalAlign=middle;whiteSpace=wrap;rounded=0;" vertex="1" parent="bjD7JFmVduCQ07Eca51E-40">
          <mxGeometry x="222.01" y="294.33000000000004" width="180" height="30" as="geometry" />
        </mxCell>
        <mxCell id="bjD7JFmVduCQ07Eca51E-1302" value="&lt;font style=&quot;font-size: 15px;&quot;&gt;F3 Economy meeting&lt;/font&gt;" style="text;html=1;align=center;verticalAlign=middle;whiteSpace=wrap;rounded=0;" vertex="1" parent="bjD7JFmVduCQ07Eca51E-40">
          <mxGeometry x="222.01" y="487.5" width="180" height="30" as="geometry" />
        </mxCell>
        <mxCell id="bjD7JFmVduCQ07Eca51E-1301" value="&lt;font style=&quot;font-size: 15px;&quot;&gt;Meeting&lt;/font&gt;" style="text;html=1;align=center;verticalAlign=middle;whiteSpace=wrap;rounded=0;" vertex="1" parent="bjD7JFmVduCQ07Eca51E-40">
          <mxGeometry x="436" y="341.28999999999996" width="180" height="30" as="geometry" />
        </mxCell>
        <mxCell id="bjD7JFmVduCQ07Eca51E-1306" value="&lt;font style=&quot;font-size: 15px;&quot;&gt;Budget meeting&lt;/font&gt;" style="text;html=1;align=center;verticalAlign=middle;whiteSpace=wrap;rounded=0;" vertex="1" parent="bjD7JFmVduCQ07Eca51E-40">
          <mxGeometry x="860.56" y="294.33" width="180" height="30" as="geometry" />
        </mxCell>
        <mxCell id="bjD7JFmVduCQ07Eca51E-1305" value="&lt;font style=&quot;font-size: 15px;&quot;&gt;Personal meeting&lt;/font&gt;" style="text;html=1;align=center;verticalAlign=middle;whiteSpace=wrap;rounded=0;" vertex="1" parent="bjD7JFmVduCQ07Eca51E-40">
          <mxGeometry x="231.53999999999996" y="607.5999999999999" width="180" height="30" as="geometry" />
        </mxCell>
        <mxCell id="bjD7JFmVduCQ07Eca51E-1304" value="&lt;font style=&quot;font-size: 15px;&quot;&gt;Meeting&lt;/font&gt;" style="text;html=1;align=center;verticalAlign=middle;whiteSpace=wrap;rounded=0;" vertex="1" parent="bjD7JFmVduCQ07Eca51E-40">
          <mxGeometry x="11" y="535.6999999999999" width="180" height="30" as="geometry" />
        </mxCell>
        <mxCell id="bjD7JFmVduCQ07Eca51E-1308" value="&lt;font style=&quot;font-size: 15px;&quot;&gt;F2 Budget meeting&lt;/font&gt;" style="text;html=1;align=center;verticalAlign=middle;whiteSpace=wrap;rounded=0;" vertex="1" parent="bjD7JFmVduCQ07Eca51E-40">
          <mxGeometry x="436" y="414.69000000000005" width="180" height="30" as="geometry" />
        </mxCell>
        <mxCell id="bjD7JFmVduCQ07Eca51E-1307" value="&lt;font style=&quot;font-size: 15px;&quot;&gt;F2 Meeting&lt;/font&gt;" style="text;html=1;align=center;verticalAlign=middle;whiteSpace=wrap;rounded=0;" vertex="1" parent="bjD7JFmVduCQ07Eca51E-40">
          <mxGeometry x="648" y="632.6400000000001" width="180" height="30" as="geometry" />
        </mxCell>
        <mxCell id="bjD7JFmVduCQ07Eca51E-1312" value="&lt;font style=&quot;font-size: 15px;&quot;&gt;F3 Budget meeting&lt;/font&gt;" style="text;html=1;align=center;verticalAlign=middle;whiteSpace=wrap;rounded=0;" vertex="1" parent="bjD7JFmVduCQ07Eca51E-40">
          <mxGeometry x="16" y="606.64" width="180" height="30" as="geometry" />
        </mxCell>
        <mxCell id="bjD7JFmVduCQ07Eca51E-1311" value="&lt;font style=&quot;font-size: 15px;&quot;&gt;F3 Board meeting&lt;/font&gt;" style="text;html=1;align=center;verticalAlign=middle;whiteSpace=wrap;rounded=0;" vertex="1" parent="bjD7JFmVduCQ07Eca51E-40">
          <mxGeometry x="436" y="294.33000000000004" width="180" height="30" as="geometry" />
        </mxCell>
        <mxCell id="bjD7JFmVduCQ07Eca51E-1310" value="&lt;font style=&quot;font-size: 15px;&quot;&gt;F3 Meeting&lt;/font&gt;" style="text;html=1;align=center;verticalAlign=middle;whiteSpace=wrap;rounded=0;" vertex="1" parent="bjD7JFmVduCQ07Eca51E-40">
          <mxGeometry x="640" y="439.03" width="180" height="30" as="geometry" />
        </mxCell>
        <mxCell id="bjD7JFmVduCQ07Eca51E-1309" value="&lt;font style=&quot;font-size: 15px;&quot;&gt;F3 Peronal meeting&lt;/font&gt;" style="text;html=1;align=center;verticalAlign=middle;whiteSpace=wrap;rounded=0;" vertex="1" parent="bjD7JFmVduCQ07Eca51E-40">
          <mxGeometry x="866.54" y="412.73" width="180" height="30" as="geometry" />
        </mxCell>
        <mxCell id="bjD7JFmVduCQ07Eca51E-210" value="" style="shape=table;startSize=0;container=1;collapsible=0;childLayout=tableLayout;" vertex="1" parent="1">
          <mxGeometry x="236.88" y="290" width="306.25" height="200" as="geometry" />
        </mxCell>
        <mxCell id="bjD7JFmVduCQ07Eca51E-211" value="" style="shape=tableRow;horizontal=0;startSize=0;swimlaneHead=0;swimlaneBody=0;strokeColor=#d6b656;top=0;left=0;bottom=0;right=0;collapsible=0;dropTarget=0;fillColor=#fff2cc;points=[[0,0.5],[1,0.5]];portConstraint=eastwest;swimlaneFillColor=none;gradientColor=none;opacity=30;" vertex="1" parent="bjD7JFmVduCQ07Eca51E-210">
          <mxGeometry width="306.25" height="34" as="geometry" />
        </mxCell>
        <mxCell id="bjD7JFmVduCQ07Eca51E-212" value="" style="shape=partialRectangle;html=1;whiteSpace=wrap;connectable=0;strokeColor=#d6b656;overflow=hidden;fillColor=#fff2cc;top=0;left=0;bottom=0;right=0;pointerEvents=1;swimlaneFillColor=none;gradientColor=none;opacity=30;" vertex="1" parent="bjD7JFmVduCQ07Eca51E-211">
          <mxGeometry width="38" height="34" as="geometry">
            <mxRectangle width="38" height="34" as="alternateBounds" />
          </mxGeometry>
        </mxCell>
        <mxCell id="bjD7JFmVduCQ07Eca51E-213" value="" style="shape=partialRectangle;html=1;whiteSpace=wrap;connectable=0;strokeColor=#d6b656;overflow=hidden;fillColor=#fff2cc;top=0;left=0;bottom=0;right=0;pointerEvents=1;swimlaneFillColor=none;gradientColor=none;opacity=30;" vertex="1" parent="bjD7JFmVduCQ07Eca51E-211">
          <mxGeometry x="38" width="39" height="34" as="geometry">
            <mxRectangle width="39" height="34" as="alternateBounds" />
          </mxGeometry>
        </mxCell>
        <mxCell id="bjD7JFmVduCQ07Eca51E-214" value="" style="shape=partialRectangle;html=1;whiteSpace=wrap;connectable=0;strokeColor=#d6b656;overflow=hidden;fillColor=#fff2cc;top=0;left=0;bottom=0;right=0;pointerEvents=1;swimlaneFillColor=none;gradientColor=none;opacity=30;" vertex="1" parent="bjD7JFmVduCQ07Eca51E-211">
          <mxGeometry x="77" width="38" height="34" as="geometry">
            <mxRectangle width="38" height="34" as="alternateBounds" />
          </mxGeometry>
        </mxCell>
        <mxCell id="bjD7JFmVduCQ07Eca51E-215" value="" style="shape=partialRectangle;html=1;whiteSpace=wrap;connectable=0;strokeColor=#d6b656;overflow=hidden;fillColor=#fff2cc;top=0;left=0;bottom=0;right=0;pointerEvents=1;swimlaneFillColor=none;gradientColor=none;opacity=30;" vertex="1" parent="bjD7JFmVduCQ07Eca51E-211">
          <mxGeometry x="115" width="37" height="34" as="geometry">
            <mxRectangle width="37" height="34" as="alternateBounds" />
          </mxGeometry>
        </mxCell>
        <mxCell id="bjD7JFmVduCQ07Eca51E-216" value="" style="shape=partialRectangle;html=1;whiteSpace=wrap;connectable=0;strokeColor=#d6b656;overflow=hidden;fillColor=#fff2cc;top=0;left=0;bottom=0;right=0;pointerEvents=1;swimlaneFillColor=none;gradientColor=none;opacity=30;" vertex="1" parent="bjD7JFmVduCQ07Eca51E-211">
          <mxGeometry x="152" width="38" height="34" as="geometry">
            <mxRectangle width="38" height="34" as="alternateBounds" />
          </mxGeometry>
        </mxCell>
        <mxCell id="bjD7JFmVduCQ07Eca51E-217" value="" style="shape=partialRectangle;html=1;whiteSpace=wrap;connectable=0;strokeColor=#d6b656;overflow=hidden;fillColor=#fff2cc;top=0;left=0;bottom=0;right=0;pointerEvents=1;swimlaneFillColor=none;gradientColor=none;opacity=30;" vertex="1" parent="bjD7JFmVduCQ07Eca51E-211">
          <mxGeometry x="190" width="38" height="34" as="geometry">
            <mxRectangle width="38" height="34" as="alternateBounds" />
          </mxGeometry>
        </mxCell>
        <mxCell id="bjD7JFmVduCQ07Eca51E-218" value="" style="shape=partialRectangle;html=1;whiteSpace=wrap;connectable=0;strokeColor=#d6b656;overflow=hidden;fillColor=#fff2cc;top=0;left=0;bottom=0;right=0;pointerEvents=1;swimlaneFillColor=none;gradientColor=none;opacity=30;" vertex="1" parent="bjD7JFmVduCQ07Eca51E-211">
          <mxGeometry x="228" width="39" height="34" as="geometry">
            <mxRectangle width="39" height="34" as="alternateBounds" />
          </mxGeometry>
        </mxCell>
        <mxCell id="bjD7JFmVduCQ07Eca51E-260" style="shape=partialRectangle;html=1;whiteSpace=wrap;connectable=0;strokeColor=#d6b656;overflow=hidden;fillColor=#fff2cc;top=0;left=0;bottom=0;right=0;pointerEvents=1;swimlaneFillColor=none;gradientColor=none;opacity=30;" vertex="1" parent="bjD7JFmVduCQ07Eca51E-211">
          <mxGeometry x="267" width="39" height="34" as="geometry">
            <mxRectangle width="39" height="34" as="alternateBounds" />
          </mxGeometry>
        </mxCell>
        <mxCell id="bjD7JFmVduCQ07Eca51E-219" value="" style="shape=tableRow;horizontal=0;startSize=0;swimlaneHead=0;swimlaneBody=0;strokeColor=#d6b656;top=0;left=0;bottom=0;right=0;collapsible=0;dropTarget=0;fillColor=#fff2cc;points=[[0,0.5],[1,0.5]];portConstraint=eastwest;swimlaneFillColor=none;gradientColor=none;opacity=30;" vertex="1" parent="bjD7JFmVduCQ07Eca51E-210">
          <mxGeometry y="34" width="306.25" height="32" as="geometry" />
        </mxCell>
        <mxCell id="bjD7JFmVduCQ07Eca51E-220" value="" style="shape=partialRectangle;html=1;whiteSpace=wrap;connectable=0;strokeColor=#d6b656;overflow=hidden;fillColor=#fff2cc;top=0;left=0;bottom=0;right=0;pointerEvents=1;swimlaneFillColor=none;gradientColor=none;opacity=30;" vertex="1" parent="bjD7JFmVduCQ07Eca51E-219">
          <mxGeometry width="38" height="32" as="geometry">
            <mxRectangle width="38" height="32" as="alternateBounds" />
          </mxGeometry>
        </mxCell>
        <mxCell id="bjD7JFmVduCQ07Eca51E-221" value="" style="shape=partialRectangle;html=1;whiteSpace=wrap;connectable=0;strokeColor=#d6b656;overflow=hidden;fillColor=#fff2cc;top=0;left=0;bottom=0;right=0;pointerEvents=1;swimlaneFillColor=none;gradientColor=none;opacity=30;" vertex="1" parent="bjD7JFmVduCQ07Eca51E-219">
          <mxGeometry x="38" width="39" height="32" as="geometry">
            <mxRectangle width="39" height="32" as="alternateBounds" />
          </mxGeometry>
        </mxCell>
        <mxCell id="bjD7JFmVduCQ07Eca51E-222" value="" style="shape=partialRectangle;html=1;whiteSpace=wrap;connectable=0;strokeColor=#d6b656;overflow=hidden;fillColor=#fff2cc;top=0;left=0;bottom=0;right=0;pointerEvents=1;swimlaneFillColor=none;gradientColor=none;opacity=30;" vertex="1" parent="bjD7JFmVduCQ07Eca51E-219">
          <mxGeometry x="77" width="38" height="32" as="geometry">
            <mxRectangle width="38" height="32" as="alternateBounds" />
          </mxGeometry>
        </mxCell>
        <mxCell id="bjD7JFmVduCQ07Eca51E-223" value="" style="shape=partialRectangle;html=1;whiteSpace=wrap;connectable=0;strokeColor=#d6b656;overflow=hidden;fillColor=#fff2cc;top=0;left=0;bottom=0;right=0;pointerEvents=1;swimlaneFillColor=none;gradientColor=none;opacity=30;" vertex="1" parent="bjD7JFmVduCQ07Eca51E-219">
          <mxGeometry x="115" width="37" height="32" as="geometry">
            <mxRectangle width="37" height="32" as="alternateBounds" />
          </mxGeometry>
        </mxCell>
        <mxCell id="bjD7JFmVduCQ07Eca51E-224" value="" style="shape=partialRectangle;html=1;whiteSpace=wrap;connectable=0;strokeColor=#d6b656;overflow=hidden;fillColor=#fff2cc;top=0;left=0;bottom=0;right=0;pointerEvents=1;swimlaneFillColor=none;gradientColor=none;opacity=30;" vertex="1" parent="bjD7JFmVduCQ07Eca51E-219">
          <mxGeometry x="152" width="38" height="32" as="geometry">
            <mxRectangle width="38" height="32" as="alternateBounds" />
          </mxGeometry>
        </mxCell>
        <mxCell id="bjD7JFmVduCQ07Eca51E-225" value="" style="shape=partialRectangle;html=1;whiteSpace=wrap;connectable=0;strokeColor=#d6b656;overflow=hidden;fillColor=#fff2cc;top=0;left=0;bottom=0;right=0;pointerEvents=1;swimlaneFillColor=none;gradientColor=none;opacity=30;" vertex="1" parent="bjD7JFmVduCQ07Eca51E-219">
          <mxGeometry x="190" width="38" height="32" as="geometry">
            <mxRectangle width="38" height="32" as="alternateBounds" />
          </mxGeometry>
        </mxCell>
        <mxCell id="bjD7JFmVduCQ07Eca51E-226" value="" style="shape=partialRectangle;html=1;whiteSpace=wrap;connectable=0;strokeColor=#d6b656;overflow=hidden;fillColor=#fff2cc;top=0;left=0;bottom=0;right=0;pointerEvents=1;swimlaneFillColor=none;gradientColor=none;opacity=30;" vertex="1" parent="bjD7JFmVduCQ07Eca51E-219">
          <mxGeometry x="228" width="39" height="32" as="geometry">
            <mxRectangle width="39" height="32" as="alternateBounds" />
          </mxGeometry>
        </mxCell>
        <mxCell id="bjD7JFmVduCQ07Eca51E-261" style="shape=partialRectangle;html=1;whiteSpace=wrap;connectable=0;strokeColor=#d6b656;overflow=hidden;fillColor=#fff2cc;top=0;left=0;bottom=0;right=0;pointerEvents=1;swimlaneFillColor=none;gradientColor=none;opacity=30;" vertex="1" parent="bjD7JFmVduCQ07Eca51E-219">
          <mxGeometry x="267" width="39" height="32" as="geometry">
            <mxRectangle width="39" height="32" as="alternateBounds" />
          </mxGeometry>
        </mxCell>
        <mxCell id="bjD7JFmVduCQ07Eca51E-227" value="" style="shape=tableRow;horizontal=0;startSize=0;swimlaneHead=0;swimlaneBody=0;strokeColor=#d6b656;top=0;left=0;bottom=0;right=0;collapsible=0;dropTarget=0;fillColor=#fff2cc;points=[[0,0.5],[1,0.5]];portConstraint=eastwest;swimlaneFillColor=none;gradientColor=none;opacity=30;" vertex="1" parent="bjD7JFmVduCQ07Eca51E-210">
          <mxGeometry y="66" width="306.25" height="34" as="geometry" />
        </mxCell>
        <mxCell id="bjD7JFmVduCQ07Eca51E-228" value="" style="shape=partialRectangle;html=1;whiteSpace=wrap;connectable=0;strokeColor=#d6b656;overflow=hidden;fillColor=#fff2cc;top=0;left=0;bottom=0;right=0;pointerEvents=1;swimlaneFillColor=none;gradientColor=none;opacity=30;" vertex="1" parent="bjD7JFmVduCQ07Eca51E-227">
          <mxGeometry width="38" height="34" as="geometry">
            <mxRectangle width="38" height="34" as="alternateBounds" />
          </mxGeometry>
        </mxCell>
        <mxCell id="bjD7JFmVduCQ07Eca51E-229" value="" style="shape=partialRectangle;html=1;whiteSpace=wrap;connectable=0;strokeColor=#d6b656;overflow=hidden;fillColor=#fff2cc;top=0;left=0;bottom=0;right=0;pointerEvents=1;swimlaneFillColor=none;gradientColor=none;opacity=30;" vertex="1" parent="bjD7JFmVduCQ07Eca51E-227">
          <mxGeometry x="38" width="39" height="34" as="geometry">
            <mxRectangle width="39" height="34" as="alternateBounds" />
          </mxGeometry>
        </mxCell>
        <mxCell id="bjD7JFmVduCQ07Eca51E-230" value="" style="shape=partialRectangle;html=1;whiteSpace=wrap;connectable=0;strokeColor=#d6b656;overflow=hidden;fillColor=#fff2cc;top=0;left=0;bottom=0;right=0;pointerEvents=1;swimlaneFillColor=none;gradientColor=none;opacity=30;" vertex="1" parent="bjD7JFmVduCQ07Eca51E-227">
          <mxGeometry x="77" width="38" height="34" as="geometry">
            <mxRectangle width="38" height="34" as="alternateBounds" />
          </mxGeometry>
        </mxCell>
        <mxCell id="bjD7JFmVduCQ07Eca51E-231" value="" style="shape=partialRectangle;html=1;whiteSpace=wrap;connectable=0;strokeColor=#d6b656;overflow=hidden;fillColor=#fff2cc;top=0;left=0;bottom=0;right=0;pointerEvents=1;swimlaneFillColor=none;gradientColor=none;opacity=30;" vertex="1" parent="bjD7JFmVduCQ07Eca51E-227">
          <mxGeometry x="115" width="37" height="34" as="geometry">
            <mxRectangle width="37" height="34" as="alternateBounds" />
          </mxGeometry>
        </mxCell>
        <mxCell id="bjD7JFmVduCQ07Eca51E-232" value="" style="shape=partialRectangle;html=1;whiteSpace=wrap;connectable=0;strokeColor=#d6b656;overflow=hidden;fillColor=#fff2cc;top=0;left=0;bottom=0;right=0;pointerEvents=1;swimlaneFillColor=none;gradientColor=none;opacity=30;" vertex="1" parent="bjD7JFmVduCQ07Eca51E-227">
          <mxGeometry x="152" width="38" height="34" as="geometry">
            <mxRectangle width="38" height="34" as="alternateBounds" />
          </mxGeometry>
        </mxCell>
        <mxCell id="bjD7JFmVduCQ07Eca51E-233" value="" style="shape=partialRectangle;html=1;whiteSpace=wrap;connectable=0;strokeColor=#d6b656;overflow=hidden;fillColor=#fff2cc;top=0;left=0;bottom=0;right=0;pointerEvents=1;swimlaneFillColor=none;gradientColor=none;opacity=30;" vertex="1" parent="bjD7JFmVduCQ07Eca51E-227">
          <mxGeometry x="190" width="38" height="34" as="geometry">
            <mxRectangle width="38" height="34" as="alternateBounds" />
          </mxGeometry>
        </mxCell>
        <mxCell id="bjD7JFmVduCQ07Eca51E-234" value="" style="shape=partialRectangle;html=1;whiteSpace=wrap;connectable=0;strokeColor=#d6b656;overflow=hidden;fillColor=#fff2cc;top=0;left=0;bottom=0;right=0;pointerEvents=1;swimlaneFillColor=none;gradientColor=none;opacity=30;" vertex="1" parent="bjD7JFmVduCQ07Eca51E-227">
          <mxGeometry x="228" width="39" height="34" as="geometry">
            <mxRectangle width="39" height="34" as="alternateBounds" />
          </mxGeometry>
        </mxCell>
        <mxCell id="bjD7JFmVduCQ07Eca51E-262" style="shape=partialRectangle;html=1;whiteSpace=wrap;connectable=0;strokeColor=#d6b656;overflow=hidden;fillColor=#fff2cc;top=0;left=0;bottom=0;right=0;pointerEvents=1;swimlaneFillColor=none;gradientColor=none;opacity=30;" vertex="1" parent="bjD7JFmVduCQ07Eca51E-227">
          <mxGeometry x="267" width="39" height="34" as="geometry">
            <mxRectangle width="39" height="34" as="alternateBounds" />
          </mxGeometry>
        </mxCell>
        <mxCell id="bjD7JFmVduCQ07Eca51E-235" value="" style="shape=tableRow;horizontal=0;startSize=0;swimlaneHead=0;swimlaneBody=0;strokeColor=#d6b656;top=0;left=0;bottom=0;right=0;collapsible=0;dropTarget=0;fillColor=#fff2cc;points=[[0,0.5],[1,0.5]];portConstraint=eastwest;swimlaneFillColor=none;gradientColor=none;opacity=30;" vertex="1" parent="bjD7JFmVduCQ07Eca51E-210">
          <mxGeometry y="100" width="306.25" height="34" as="geometry" />
        </mxCell>
        <mxCell id="bjD7JFmVduCQ07Eca51E-236" value="" style="shape=partialRectangle;html=1;whiteSpace=wrap;connectable=0;strokeColor=#d6b656;overflow=hidden;fillColor=#fff2cc;top=0;left=0;bottom=0;right=0;pointerEvents=1;swimlaneFillColor=none;gradientColor=none;opacity=30;" vertex="1" parent="bjD7JFmVduCQ07Eca51E-235">
          <mxGeometry width="38" height="34" as="geometry">
            <mxRectangle width="38" height="34" as="alternateBounds" />
          </mxGeometry>
        </mxCell>
        <mxCell id="bjD7JFmVduCQ07Eca51E-237" value="" style="shape=partialRectangle;html=1;whiteSpace=wrap;connectable=0;strokeColor=#d6b656;overflow=hidden;fillColor=#fff2cc;top=0;left=0;bottom=0;right=0;pointerEvents=1;swimlaneFillColor=none;gradientColor=none;opacity=30;" vertex="1" parent="bjD7JFmVduCQ07Eca51E-235">
          <mxGeometry x="38" width="39" height="34" as="geometry">
            <mxRectangle width="39" height="34" as="alternateBounds" />
          </mxGeometry>
        </mxCell>
        <mxCell id="bjD7JFmVduCQ07Eca51E-238" value="" style="shape=partialRectangle;html=1;whiteSpace=wrap;connectable=0;strokeColor=#d6b656;overflow=hidden;fillColor=#fff2cc;top=0;left=0;bottom=0;right=0;pointerEvents=1;swimlaneFillColor=none;gradientColor=none;opacity=30;" vertex="1" parent="bjD7JFmVduCQ07Eca51E-235">
          <mxGeometry x="77" width="38" height="34" as="geometry">
            <mxRectangle width="38" height="34" as="alternateBounds" />
          </mxGeometry>
        </mxCell>
        <mxCell id="bjD7JFmVduCQ07Eca51E-239" value="" style="shape=partialRectangle;html=1;whiteSpace=wrap;connectable=0;strokeColor=#d6b656;overflow=hidden;fillColor=#fff2cc;top=0;left=0;bottom=0;right=0;pointerEvents=1;swimlaneFillColor=none;gradientColor=none;opacity=30;" vertex="1" parent="bjD7JFmVduCQ07Eca51E-235">
          <mxGeometry x="115" width="37" height="34" as="geometry">
            <mxRectangle width="37" height="34" as="alternateBounds" />
          </mxGeometry>
        </mxCell>
        <mxCell id="bjD7JFmVduCQ07Eca51E-240" value="" style="shape=partialRectangle;html=1;whiteSpace=wrap;connectable=0;strokeColor=#d6b656;overflow=hidden;fillColor=#fff2cc;top=0;left=0;bottom=0;right=0;pointerEvents=1;swimlaneFillColor=none;gradientColor=none;opacity=30;" vertex="1" parent="bjD7JFmVduCQ07Eca51E-235">
          <mxGeometry x="152" width="38" height="34" as="geometry">
            <mxRectangle width="38" height="34" as="alternateBounds" />
          </mxGeometry>
        </mxCell>
        <mxCell id="bjD7JFmVduCQ07Eca51E-241" value="" style="shape=partialRectangle;html=1;whiteSpace=wrap;connectable=0;strokeColor=#d6b656;overflow=hidden;fillColor=#fff2cc;top=0;left=0;bottom=0;right=0;pointerEvents=1;swimlaneFillColor=none;gradientColor=none;opacity=30;" vertex="1" parent="bjD7JFmVduCQ07Eca51E-235">
          <mxGeometry x="190" width="38" height="34" as="geometry">
            <mxRectangle width="38" height="34" as="alternateBounds" />
          </mxGeometry>
        </mxCell>
        <mxCell id="bjD7JFmVduCQ07Eca51E-242" value="" style="shape=partialRectangle;html=1;whiteSpace=wrap;connectable=0;strokeColor=#d6b656;overflow=hidden;fillColor=#fff2cc;top=0;left=0;bottom=0;right=0;pointerEvents=1;swimlaneFillColor=none;gradientColor=none;opacity=30;" vertex="1" parent="bjD7JFmVduCQ07Eca51E-235">
          <mxGeometry x="228" width="39" height="34" as="geometry">
            <mxRectangle width="39" height="34" as="alternateBounds" />
          </mxGeometry>
        </mxCell>
        <mxCell id="bjD7JFmVduCQ07Eca51E-263" style="shape=partialRectangle;html=1;whiteSpace=wrap;connectable=0;strokeColor=#d6b656;overflow=hidden;fillColor=#fff2cc;top=0;left=0;bottom=0;right=0;pointerEvents=1;swimlaneFillColor=none;gradientColor=none;opacity=30;" vertex="1" parent="bjD7JFmVduCQ07Eca51E-235">
          <mxGeometry x="267" width="39" height="34" as="geometry">
            <mxRectangle width="39" height="34" as="alternateBounds" />
          </mxGeometry>
        </mxCell>
        <mxCell id="bjD7JFmVduCQ07Eca51E-243" value="" style="shape=tableRow;horizontal=0;startSize=0;swimlaneHead=0;swimlaneBody=0;strokeColor=#d6b656;top=0;left=0;bottom=0;right=0;collapsible=0;dropTarget=0;fillColor=#fff2cc;points=[[0,0.5],[1,0.5]];portConstraint=eastwest;swimlaneFillColor=none;gradientColor=none;opacity=30;" vertex="1" parent="bjD7JFmVduCQ07Eca51E-210">
          <mxGeometry y="134" width="306.25" height="32" as="geometry" />
        </mxCell>
        <mxCell id="bjD7JFmVduCQ07Eca51E-244" value="" style="shape=partialRectangle;html=1;whiteSpace=wrap;connectable=0;strokeColor=#d6b656;overflow=hidden;fillColor=#fff2cc;top=0;left=0;bottom=0;right=0;pointerEvents=1;swimlaneFillColor=none;gradientColor=none;opacity=30;" vertex="1" parent="bjD7JFmVduCQ07Eca51E-243">
          <mxGeometry width="38" height="32" as="geometry">
            <mxRectangle width="38" height="32" as="alternateBounds" />
          </mxGeometry>
        </mxCell>
        <mxCell id="bjD7JFmVduCQ07Eca51E-245" value="" style="shape=partialRectangle;html=1;whiteSpace=wrap;connectable=0;strokeColor=#d6b656;overflow=hidden;fillColor=#fff2cc;top=0;left=0;bottom=0;right=0;pointerEvents=1;swimlaneFillColor=none;gradientColor=none;opacity=30;" vertex="1" parent="bjD7JFmVduCQ07Eca51E-243">
          <mxGeometry x="38" width="39" height="32" as="geometry">
            <mxRectangle width="39" height="32" as="alternateBounds" />
          </mxGeometry>
        </mxCell>
        <mxCell id="bjD7JFmVduCQ07Eca51E-246" value="" style="shape=partialRectangle;html=1;whiteSpace=wrap;connectable=0;strokeColor=#d6b656;overflow=hidden;fillColor=#fff2cc;top=0;left=0;bottom=0;right=0;pointerEvents=1;swimlaneFillColor=none;gradientColor=none;opacity=30;" vertex="1" parent="bjD7JFmVduCQ07Eca51E-243">
          <mxGeometry x="77" width="38" height="32" as="geometry">
            <mxRectangle width="38" height="32" as="alternateBounds" />
          </mxGeometry>
        </mxCell>
        <mxCell id="bjD7JFmVduCQ07Eca51E-247" value="" style="shape=partialRectangle;html=1;whiteSpace=wrap;connectable=0;strokeColor=#d6b656;overflow=hidden;fillColor=#fff2cc;top=0;left=0;bottom=0;right=0;pointerEvents=1;swimlaneFillColor=none;gradientColor=none;opacity=30;" vertex="1" parent="bjD7JFmVduCQ07Eca51E-243">
          <mxGeometry x="115" width="37" height="32" as="geometry">
            <mxRectangle width="37" height="32" as="alternateBounds" />
          </mxGeometry>
        </mxCell>
        <mxCell id="bjD7JFmVduCQ07Eca51E-248" value="" style="shape=partialRectangle;html=1;whiteSpace=wrap;connectable=0;strokeColor=#d6b656;overflow=hidden;fillColor=#fff2cc;top=0;left=0;bottom=0;right=0;pointerEvents=1;swimlaneFillColor=none;gradientColor=none;opacity=30;" vertex="1" parent="bjD7JFmVduCQ07Eca51E-243">
          <mxGeometry x="152" width="38" height="32" as="geometry">
            <mxRectangle width="38" height="32" as="alternateBounds" />
          </mxGeometry>
        </mxCell>
        <mxCell id="bjD7JFmVduCQ07Eca51E-249" value="" style="shape=partialRectangle;html=1;whiteSpace=wrap;connectable=0;strokeColor=#d6b656;overflow=hidden;fillColor=#fff2cc;top=0;left=0;bottom=0;right=0;pointerEvents=1;swimlaneFillColor=none;gradientColor=none;opacity=30;" vertex="1" parent="bjD7JFmVduCQ07Eca51E-243">
          <mxGeometry x="190" width="38" height="32" as="geometry">
            <mxRectangle width="38" height="32" as="alternateBounds" />
          </mxGeometry>
        </mxCell>
        <mxCell id="bjD7JFmVduCQ07Eca51E-250" value="" style="shape=partialRectangle;html=1;whiteSpace=wrap;connectable=0;strokeColor=#d6b656;overflow=hidden;fillColor=#fff2cc;top=0;left=0;bottom=0;right=0;pointerEvents=1;swimlaneFillColor=none;gradientColor=none;opacity=30;" vertex="1" parent="bjD7JFmVduCQ07Eca51E-243">
          <mxGeometry x="228" width="39" height="32" as="geometry">
            <mxRectangle width="39" height="32" as="alternateBounds" />
          </mxGeometry>
        </mxCell>
        <mxCell id="bjD7JFmVduCQ07Eca51E-264" style="shape=partialRectangle;html=1;whiteSpace=wrap;connectable=0;strokeColor=#d6b656;overflow=hidden;fillColor=#fff2cc;top=0;left=0;bottom=0;right=0;pointerEvents=1;swimlaneFillColor=none;gradientColor=none;opacity=30;" vertex="1" parent="bjD7JFmVduCQ07Eca51E-243">
          <mxGeometry x="267" width="39" height="32" as="geometry">
            <mxRectangle width="39" height="32" as="alternateBounds" />
          </mxGeometry>
        </mxCell>
        <mxCell id="bjD7JFmVduCQ07Eca51E-251" value="" style="shape=tableRow;horizontal=0;startSize=0;swimlaneHead=0;swimlaneBody=0;strokeColor=#d6b656;top=0;left=0;bottom=0;right=0;collapsible=0;dropTarget=0;fillColor=#fff2cc;points=[[0,0.5],[1,0.5]];portConstraint=eastwest;swimlaneFillColor=none;gradientColor=none;opacity=30;" vertex="1" parent="bjD7JFmVduCQ07Eca51E-210">
          <mxGeometry y="166" width="306.25" height="34" as="geometry" />
        </mxCell>
        <mxCell id="bjD7JFmVduCQ07Eca51E-252" value="" style="shape=partialRectangle;html=1;whiteSpace=wrap;connectable=0;strokeColor=#d6b656;overflow=hidden;fillColor=#fff2cc;top=0;left=0;bottom=0;right=0;pointerEvents=1;swimlaneFillColor=none;gradientColor=none;opacity=30;" vertex="1" parent="bjD7JFmVduCQ07Eca51E-251">
          <mxGeometry width="38" height="34" as="geometry">
            <mxRectangle width="38" height="34" as="alternateBounds" />
          </mxGeometry>
        </mxCell>
        <mxCell id="bjD7JFmVduCQ07Eca51E-253" value="" style="shape=partialRectangle;html=1;whiteSpace=wrap;connectable=0;strokeColor=#d6b656;overflow=hidden;fillColor=#fff2cc;top=0;left=0;bottom=0;right=0;pointerEvents=1;swimlaneFillColor=none;gradientColor=none;opacity=30;" vertex="1" parent="bjD7JFmVduCQ07Eca51E-251">
          <mxGeometry x="38" width="39" height="34" as="geometry">
            <mxRectangle width="39" height="34" as="alternateBounds" />
          </mxGeometry>
        </mxCell>
        <mxCell id="bjD7JFmVduCQ07Eca51E-254" value="" style="shape=partialRectangle;html=1;whiteSpace=wrap;connectable=0;strokeColor=#d6b656;overflow=hidden;fillColor=#fff2cc;top=0;left=0;bottom=0;right=0;pointerEvents=1;swimlaneFillColor=none;gradientColor=none;opacity=30;" vertex="1" parent="bjD7JFmVduCQ07Eca51E-251">
          <mxGeometry x="77" width="38" height="34" as="geometry">
            <mxRectangle width="38" height="34" as="alternateBounds" />
          </mxGeometry>
        </mxCell>
        <mxCell id="bjD7JFmVduCQ07Eca51E-255" value="" style="shape=partialRectangle;html=1;whiteSpace=wrap;connectable=0;strokeColor=#d6b656;overflow=hidden;fillColor=#fff2cc;top=0;left=0;bottom=0;right=0;pointerEvents=1;swimlaneFillColor=none;gradientColor=none;opacity=30;" vertex="1" parent="bjD7JFmVduCQ07Eca51E-251">
          <mxGeometry x="115" width="37" height="34" as="geometry">
            <mxRectangle width="37" height="34" as="alternateBounds" />
          </mxGeometry>
        </mxCell>
        <mxCell id="bjD7JFmVduCQ07Eca51E-256" value="" style="shape=partialRectangle;html=1;whiteSpace=wrap;connectable=0;strokeColor=#d6b656;overflow=hidden;fillColor=#fff2cc;top=0;left=0;bottom=0;right=0;pointerEvents=1;swimlaneFillColor=none;gradientColor=none;opacity=30;" vertex="1" parent="bjD7JFmVduCQ07Eca51E-251">
          <mxGeometry x="152" width="38" height="34" as="geometry">
            <mxRectangle width="38" height="34" as="alternateBounds" />
          </mxGeometry>
        </mxCell>
        <mxCell id="bjD7JFmVduCQ07Eca51E-257" value="" style="shape=partialRectangle;html=1;whiteSpace=wrap;connectable=0;strokeColor=#d6b656;overflow=hidden;fillColor=#fff2cc;top=0;left=0;bottom=0;right=0;pointerEvents=1;swimlaneFillColor=none;gradientColor=none;opacity=30;" vertex="1" parent="bjD7JFmVduCQ07Eca51E-251">
          <mxGeometry x="190" width="38" height="34" as="geometry">
            <mxRectangle width="38" height="34" as="alternateBounds" />
          </mxGeometry>
        </mxCell>
        <mxCell id="bjD7JFmVduCQ07Eca51E-258" value="" style="shape=partialRectangle;html=1;whiteSpace=wrap;connectable=0;strokeColor=#d6b656;overflow=hidden;fillColor=#fff2cc;top=0;left=0;bottom=0;right=0;pointerEvents=1;swimlaneFillColor=none;gradientColor=none;opacity=30;" vertex="1" parent="bjD7JFmVduCQ07Eca51E-251">
          <mxGeometry x="228" width="39" height="34" as="geometry">
            <mxRectangle width="39" height="34" as="alternateBounds" />
          </mxGeometry>
        </mxCell>
        <mxCell id="bjD7JFmVduCQ07Eca51E-265" style="shape=partialRectangle;html=1;whiteSpace=wrap;connectable=0;strokeColor=#d6b656;overflow=hidden;fillColor=#fff2cc;top=0;left=0;bottom=0;right=0;pointerEvents=1;swimlaneFillColor=none;gradientColor=none;opacity=30;" vertex="1" parent="bjD7JFmVduCQ07Eca51E-251">
          <mxGeometry x="267" width="39" height="34" as="geometry">
            <mxRectangle width="39" height="34" as="alternateBounds" />
          </mxGeometry>
        </mxCell>
        <mxCell id="bjD7JFmVduCQ07Eca51E-259" value="&lt;font size=&quot;1&quot; face=&quot;Courier New&quot; style=&quot;&quot;&gt;&lt;span style=&quot;font-size: 23px;&quot;&gt;2024 September&lt;/span&gt;&lt;/font&gt;" style="text;html=1;align=center;verticalAlign=middle;whiteSpace=wrap;rounded=0;" vertex="1" parent="1">
          <mxGeometry x="255" y="230" width="270" height="30" as="geometry" />
        </mxCell>
        <mxCell id="bjD7JFmVduCQ07Eca51E-269" value="" style="rounded=1;whiteSpace=wrap;html=1;fillColor=#cdeb8b;strokeColor=#36393d;" vertex="1" parent="1">
          <mxGeometry x="236.13" y="510" width="307" height="50" as="geometry" />
        </mxCell>
        <mxCell id="bjD7JFmVduCQ07Eca51E-267" value="" style="shape=cross;whiteSpace=wrap;html=1;" vertex="1" parent="1">
          <mxGeometry x="502.26" y="522.5" width="26.87" height="25" as="geometry" />
        </mxCell>
        <mxCell id="bjD7JFmVduCQ07Eca51E-268" value="&lt;font style=&quot;&quot; face=&quot;Courier New&quot; size=&quot;1&quot;&gt;&lt;b style=&quot;font-size: 27px;&quot;&gt;New Meeting&lt;/b&gt;&lt;/font&gt;" style="text;html=1;align=left;verticalAlign=middle;whiteSpace=wrap;rounded=0;" vertex="1" parent="1">
          <mxGeometry x="255" y="520" width="205" height="30" as="geometry" />
        </mxCell>
        <mxCell id="bjD7JFmVduCQ07Eca51E-637" value="" style="rounded=1;whiteSpace=wrap;html=1;fillColor=#cdeb8b;strokeColor=#36393d;" vertex="1" parent="1">
          <mxGeometry x="236.88" y="615" width="263.12" height="50" as="geometry" />
        </mxCell>
        <mxCell id="bjD7JFmVduCQ07Eca51E-650" value="" style="line;strokeWidth=4;html=1;perimeter=backbonePerimeter;points=[];outlineConnect=0;" vertex="1" parent="1">
          <mxGeometry x="236.13" y="585" width="303.87" height="10" as="geometry" />
        </mxCell>
        <mxCell id="bjD7JFmVduCQ07Eca51E-655" value="" style="group" vertex="1" connectable="0" parent="1">
          <mxGeometry x="250" y="620" width="40" height="40" as="geometry" />
        </mxCell>
        <mxCell id="bjD7JFmVduCQ07Eca51E-656" value="" style="ellipse;whiteSpace=wrap;html=1;aspect=fixed;" vertex="1" parent="bjD7JFmVduCQ07Eca51E-655">
          <mxGeometry width="40" height="40" as="geometry" />
        </mxCell>
        <mxCell id="bjD7JFmVduCQ07Eca51E-657" value="" style="shape=actor;whiteSpace=wrap;html=1;" vertex="1" parent="bjD7JFmVduCQ07Eca51E-655">
          <mxGeometry x="10" y="8.571428571428571" width="20" height="22.857142857142854" as="geometry" />
        </mxCell>
        <mxCell id="bjD7JFmVduCQ07Eca51E-661" value="&lt;font style=&quot;&quot; face=&quot;Courier New&quot; size=&quot;1&quot;&gt;&lt;b style=&quot;font-size: 27px;&quot;&gt;Friend 1&lt;/b&gt;&lt;/font&gt;" style="text;html=1;align=left;verticalAlign=middle;whiteSpace=wrap;rounded=0;" vertex="1" parent="1">
          <mxGeometry x="311" y="625" width="205" height="30" as="geometry" />
        </mxCell>
        <mxCell id="bjD7JFmVduCQ07Eca51E-687" value="" style="rounded=1;whiteSpace=wrap;html=1;fillColor=#cdeb8b;strokeColor=#36393d;" vertex="1" parent="1">
          <mxGeometry x="236.88" y="680" width="263.12" height="50" as="geometry" />
        </mxCell>
        <mxCell id="bjD7JFmVduCQ07Eca51E-688" value="" style="group" vertex="1" connectable="0" parent="1">
          <mxGeometry x="250" y="685" width="40" height="40" as="geometry" />
        </mxCell>
        <mxCell id="bjD7JFmVduCQ07Eca51E-689" value="" style="ellipse;whiteSpace=wrap;html=1;aspect=fixed;" vertex="1" parent="bjD7JFmVduCQ07Eca51E-688">
          <mxGeometry width="40" height="40" as="geometry" />
        </mxCell>
        <mxCell id="bjD7JFmVduCQ07Eca51E-690" value="" style="shape=actor;whiteSpace=wrap;html=1;" vertex="1" parent="bjD7JFmVduCQ07Eca51E-688">
          <mxGeometry x="10" y="8.571428571428571" width="20" height="22.857142857142854" as="geometry" />
        </mxCell>
        <mxCell id="bjD7JFmVduCQ07Eca51E-691" value="&lt;font style=&quot;&quot; face=&quot;Courier New&quot; size=&quot;1&quot;&gt;&lt;b style=&quot;font-size: 27px;&quot;&gt;Friend 2&lt;/b&gt;&lt;/font&gt;" style="text;html=1;align=left;verticalAlign=middle;whiteSpace=wrap;rounded=0;" vertex="1" parent="1">
          <mxGeometry x="311" y="690" width="205" height="30" as="geometry" />
        </mxCell>
        <mxCell id="bjD7JFmVduCQ07Eca51E-692" value="" style="rounded=1;whiteSpace=wrap;html=1;fillColor=#cdeb8b;strokeColor=#36393d;" vertex="1" parent="1">
          <mxGeometry x="236.13" y="745" width="263.12" height="50" as="geometry" />
        </mxCell>
        <mxCell id="bjD7JFmVduCQ07Eca51E-693" value="" style="group" vertex="1" connectable="0" parent="1">
          <mxGeometry x="249.25" y="750" width="40" height="40" as="geometry" />
        </mxCell>
        <mxCell id="bjD7JFmVduCQ07Eca51E-694" value="" style="ellipse;whiteSpace=wrap;html=1;aspect=fixed;" vertex="1" parent="bjD7JFmVduCQ07Eca51E-693">
          <mxGeometry width="40" height="40" as="geometry" />
        </mxCell>
        <mxCell id="bjD7JFmVduCQ07Eca51E-695" value="" style="shape=actor;whiteSpace=wrap;html=1;" vertex="1" parent="bjD7JFmVduCQ07Eca51E-693">
          <mxGeometry x="10" y="8.571428571428571" width="20" height="22.857142857142854" as="geometry" />
        </mxCell>
        <mxCell id="bjD7JFmVduCQ07Eca51E-696" value="&lt;font style=&quot;&quot; face=&quot;Courier New&quot; size=&quot;1&quot;&gt;&lt;b style=&quot;font-size: 27px;&quot;&gt;Friend 3&lt;/b&gt;&lt;/font&gt;" style="text;html=1;align=left;verticalAlign=middle;whiteSpace=wrap;rounded=0;" vertex="1" parent="1">
          <mxGeometry x="310.25" y="755" width="205" height="30" as="geometry" />
        </mxCell>
        <mxCell id="bjD7JFmVduCQ07Eca51E-697" value="" style="rounded=1;whiteSpace=wrap;html=1;fillColor=#cdeb8b;strokeColor=#36393d;" vertex="1" parent="1">
          <mxGeometry x="236.88" y="808" width="263.12" height="50" as="geometry" />
        </mxCell>
        <mxCell id="bjD7JFmVduCQ07Eca51E-698" value="" style="group" vertex="1" connectable="0" parent="1">
          <mxGeometry x="250" y="813" width="40" height="40" as="geometry" />
        </mxCell>
        <mxCell id="bjD7JFmVduCQ07Eca51E-699" value="" style="ellipse;whiteSpace=wrap;html=1;aspect=fixed;" vertex="1" parent="bjD7JFmVduCQ07Eca51E-698">
          <mxGeometry width="40" height="40" as="geometry" />
        </mxCell>
        <mxCell id="bjD7JFmVduCQ07Eca51E-700" value="" style="shape=actor;whiteSpace=wrap;html=1;" vertex="1" parent="bjD7JFmVduCQ07Eca51E-698">
          <mxGeometry x="10" y="8.571428571428571" width="20" height="22.857142857142854" as="geometry" />
        </mxCell>
        <mxCell id="bjD7JFmVduCQ07Eca51E-701" value="&lt;font style=&quot;&quot; face=&quot;Courier New&quot; size=&quot;1&quot;&gt;&lt;b style=&quot;font-size: 27px;&quot;&gt;Friend 4&lt;/b&gt;&lt;/font&gt;" style="text;html=1;align=left;verticalAlign=middle;whiteSpace=wrap;rounded=0;" vertex="1" parent="1">
          <mxGeometry x="311" y="818" width="205" height="30" as="geometry" />
        </mxCell>
        <mxCell id="bjD7JFmVduCQ07Eca51E-702" value="" style="rounded=1;whiteSpace=wrap;html=1;fillColor=#cdeb8b;strokeColor=#36393d;" vertex="1" parent="1">
          <mxGeometry x="236.88" y="870" width="263.12" height="50" as="geometry" />
        </mxCell>
        <mxCell id="bjD7JFmVduCQ07Eca51E-703" value="" style="group" vertex="1" connectable="0" parent="1">
          <mxGeometry x="250" y="875" width="40" height="40" as="geometry" />
        </mxCell>
        <mxCell id="bjD7JFmVduCQ07Eca51E-704" value="" style="ellipse;whiteSpace=wrap;html=1;aspect=fixed;" vertex="1" parent="bjD7JFmVduCQ07Eca51E-703">
          <mxGeometry width="40" height="40" as="geometry" />
        </mxCell>
        <mxCell id="bjD7JFmVduCQ07Eca51E-705" value="" style="shape=actor;whiteSpace=wrap;html=1;" vertex="1" parent="bjD7JFmVduCQ07Eca51E-703">
          <mxGeometry x="10" y="8.571428571428571" width="20" height="22.857142857142854" as="geometry" />
        </mxCell>
        <mxCell id="bjD7JFmVduCQ07Eca51E-706" value="&lt;font style=&quot;&quot; face=&quot;Courier New&quot; size=&quot;1&quot;&gt;&lt;b style=&quot;font-size: 27px;&quot;&gt;Friend 5&lt;/b&gt;&lt;/font&gt;" style="text;html=1;align=left;verticalAlign=middle;whiteSpace=wrap;rounded=0;" vertex="1" parent="1">
          <mxGeometry x="311" y="880" width="205" height="30" as="geometry" />
        </mxCell>
        <mxCell id="bjD7JFmVduCQ07Eca51E-707" value="" style="rounded=1;whiteSpace=wrap;html=1;fillColor=#cdeb8b;strokeColor=#36393d;" vertex="1" parent="1">
          <mxGeometry x="237.63" y="933" width="263.12" height="50" as="geometry" />
        </mxCell>
        <mxCell id="bjD7JFmVduCQ07Eca51E-708" value="" style="group" vertex="1" connectable="0" parent="1">
          <mxGeometry x="250.75" y="938" width="40" height="40" as="geometry" />
        </mxCell>
        <mxCell id="bjD7JFmVduCQ07Eca51E-709" value="" style="ellipse;whiteSpace=wrap;html=1;aspect=fixed;" vertex="1" parent="bjD7JFmVduCQ07Eca51E-708">
          <mxGeometry width="40" height="40" as="geometry" />
        </mxCell>
        <mxCell id="bjD7JFmVduCQ07Eca51E-710" value="" style="shape=actor;whiteSpace=wrap;html=1;" vertex="1" parent="bjD7JFmVduCQ07Eca51E-708">
          <mxGeometry x="10" y="8.571428571428571" width="20" height="22.857142857142854" as="geometry" />
        </mxCell>
        <mxCell id="bjD7JFmVduCQ07Eca51E-711" value="&lt;font style=&quot;&quot; face=&quot;Courier New&quot; size=&quot;1&quot;&gt;&lt;b style=&quot;font-size: 27px;&quot;&gt;Friend 6&lt;/b&gt;&lt;/font&gt;" style="text;html=1;align=left;verticalAlign=middle;whiteSpace=wrap;rounded=0;" vertex="1" parent="1">
          <mxGeometry x="311.75" y="943" width="205" height="30" as="geometry" />
        </mxCell>
        <mxCell id="bjD7JFmVduCQ07Eca51E-712" value="" style="rounded=1;whiteSpace=wrap;html=1;fillColor=#cdeb8b;strokeColor=#36393d;" vertex="1" parent="1">
          <mxGeometry x="237.63" y="995" width="263.12" height="50" as="geometry" />
        </mxCell>
        <mxCell id="bjD7JFmVduCQ07Eca51E-713" value="" style="group" vertex="1" connectable="0" parent="1">
          <mxGeometry x="250.75" y="1000" width="40" height="40" as="geometry" />
        </mxCell>
        <mxCell id="bjD7JFmVduCQ07Eca51E-714" value="" style="ellipse;whiteSpace=wrap;html=1;aspect=fixed;" vertex="1" parent="bjD7JFmVduCQ07Eca51E-713">
          <mxGeometry width="40" height="40" as="geometry" />
        </mxCell>
        <mxCell id="bjD7JFmVduCQ07Eca51E-715" value="" style="shape=actor;whiteSpace=wrap;html=1;" vertex="1" parent="bjD7JFmVduCQ07Eca51E-713">
          <mxGeometry x="10" y="8.571428571428571" width="20" height="22.857142857142854" as="geometry" />
        </mxCell>
        <mxCell id="bjD7JFmVduCQ07Eca51E-716" value="&lt;font style=&quot;&quot; face=&quot;Courier New&quot; size=&quot;1&quot;&gt;&lt;b style=&quot;font-size: 27px;&quot;&gt;Friend 7&lt;/b&gt;&lt;/font&gt;" style="text;html=1;align=left;verticalAlign=middle;whiteSpace=wrap;rounded=0;" vertex="1" parent="1">
          <mxGeometry x="311.75" y="1005" width="205" height="30" as="geometry" />
        </mxCell>
        <mxCell id="bjD7JFmVduCQ07Eca51E-718" value="" style="whiteSpace=wrap;html=1;aspect=fixed;" vertex="1" parent="1">
          <mxGeometry x="460" y="625" width="30" height="30" as="geometry" />
        </mxCell>
        <mxCell id="bjD7JFmVduCQ07Eca51E-719" value="" style="whiteSpace=wrap;html=1;aspect=fixed;" vertex="1" parent="1">
          <mxGeometry x="460" y="690" width="30" height="30" as="geometry" />
        </mxCell>
        <mxCell id="bjD7JFmVduCQ07Eca51E-720" value="" style="whiteSpace=wrap;html=1;aspect=fixed;" vertex="1" parent="1">
          <mxGeometry x="460" y="755" width="30" height="30" as="geometry" />
        </mxCell>
        <mxCell id="bjD7JFmVduCQ07Eca51E-721" value="" style="whiteSpace=wrap;html=1;aspect=fixed;" vertex="1" parent="1">
          <mxGeometry x="460" y="818" width="30" height="30" as="geometry" />
        </mxCell>
        <mxCell id="bjD7JFmVduCQ07Eca51E-722" value="" style="whiteSpace=wrap;html=1;aspect=fixed;" vertex="1" parent="1">
          <mxGeometry x="460" y="880" width="30" height="30" as="geometry" />
        </mxCell>
        <mxCell id="bjD7JFmVduCQ07Eca51E-723" value="" style="whiteSpace=wrap;html=1;aspect=fixed;" vertex="1" parent="1">
          <mxGeometry x="460" y="943" width="30" height="30" as="geometry" />
        </mxCell>
        <mxCell id="bjD7JFmVduCQ07Eca51E-724" value="" style="whiteSpace=wrap;html=1;aspect=fixed;" vertex="1" parent="1">
          <mxGeometry x="460" y="1005" width="30" height="30" as="geometry" />
        </mxCell>
        <mxCell id="bjD7JFmVduCQ07Eca51E-726" value="" style="rounded=1;whiteSpace=wrap;html=1;fillColor=#eeeeee;strokeColor=#36393d;" vertex="1" parent="1">
          <mxGeometry x="520" y="615" width="20" height="435" as="geometry" />
        </mxCell>
        <mxCell id="bjD7JFmVduCQ07Eca51E-727" value="" style="rounded=1;whiteSpace=wrap;html=1;fillColor=#998f8f;" vertex="1" parent="1">
          <mxGeometry x="520" y="660" width="20" height="60" as="geometry" />
        </mxCell>
        <mxCell id="bjD7JFmVduCQ07Eca51E-729" value="" style="shape=mxgraph.mockup.markup.redX;fillColor=#000000;html=1;shadow=0;whiteSpace=wrap;strokeColor=none;" vertex="1" parent="1">
          <mxGeometry x="462.5" y="625" width="25" height="30" as="geometry" />
        </mxCell>
        <mxCell id="bjD7JFmVduCQ07Eca51E-730" value="" style="shape=mxgraph.mockup.markup.redX;fillColor=#000000;html=1;shadow=0;whiteSpace=wrap;strokeColor=none;" vertex="1" parent="1">
          <mxGeometry x="462.5" y="880" width="25" height="30" as="geometry" />
        </mxCell>
        <mxCell id="bjD7JFmVduCQ07Eca51E-731" value="" style="shape=mxgraph.mockup.markup.redX;fillColor=#000000;html=1;shadow=0;whiteSpace=wrap;strokeColor=none;" vertex="1" parent="1">
          <mxGeometry x="462.5" y="818" width="25" height="30" as="geometry" />
        </mxCell>
        <mxCell id="bjD7JFmVduCQ07Eca51E-1313" value="&lt;h1 style=&quot;margin-top: 0px;&quot;&gt;Small calendar&lt;/h1&gt;&lt;p&gt;A calendar so you can get an overview over the month. You will also be able to scroll to other months.&lt;/p&gt;" style="text;html=1;whiteSpace=wrap;overflow=hidden;rounded=0;" vertex="1" parent="1">
          <mxGeometry x="-20" y="185" width="180" height="120" as="geometry" />
        </mxCell>
        <mxCell id="bjD7JFmVduCQ07Eca51E-1314" value="&lt;h1 style=&quot;margin-top: 0px;&quot;&gt;New meeting&lt;/h1&gt;&lt;p&gt;A button to create a new meeting. Will bring user to the &quot;Create meeting&quot; page.&lt;/p&gt;" style="text;html=1;whiteSpace=wrap;overflow=hidden;rounded=0;" vertex="1" parent="1">
          <mxGeometry x="-30" y="475" width="180" height="120" as="geometry" />
        </mxCell>
        <mxCell id="bjD7JFmVduCQ07Eca51E-1315" value="&lt;h1 style=&quot;margin-top: 0px;&quot;&gt;Friendlist&lt;/h1&gt;&lt;p&gt;A list with your friends with checkboxes for the posibility to see your friends schedules.&lt;/p&gt;" style="text;html=1;whiteSpace=wrap;overflow=hidden;rounded=0;" vertex="1" parent="1">
          <mxGeometry x="-20" y="725" width="180" height="120" as="geometry" />
        </mxCell>
        <mxCell id="bjD7JFmVduCQ07Eca51E-1316" value="&lt;h1 style=&quot;margin-top: 0px;&quot;&gt;UserName&lt;/h1&gt;&lt;p&gt;Displays your username and a choosen picture. The picture will be clickable to a list with some settings like change password.&lt;/p&gt;" style="text;html=1;whiteSpace=wrap;overflow=hidden;rounded=0;" vertex="1" parent="1">
          <mxGeometry x="2180" y="51" width="180" height="120" as="geometry" />
        </mxCell>
        <mxCell id="bjD7JFmVduCQ07Eca51E-1317" value="&lt;h1 style=&quot;margin-top: 0px;&quot;&gt;Meetings&lt;/h1&gt;&lt;p&gt;A short tag which friend the meeting belongs to (if it is not yor own), a short description of the meeting and the timespan the meeting is.&lt;/p&gt;" style="text;html=1;whiteSpace=wrap;overflow=hidden;rounded=0;" vertex="1" parent="1">
          <mxGeometry x="2150" y="665" width="180" height="120" as="geometry" />
        </mxCell>
        <mxCell id="bjD7JFmVduCQ07Eca51E-1318" value="&lt;h1 style=&quot;margin-top: 0px;&quot;&gt;Colorcode&lt;/h1&gt;&lt;p&gt;Colorcode to differentiate your and your friends meetings.&lt;/p&gt;" style="text;html=1;whiteSpace=wrap;overflow=hidden;rounded=0;" vertex="1" parent="1">
          <mxGeometry x="2140" y="330" width="180" height="120" as="geometry" />
        </mxCell>
        <mxCell id="bjD7JFmVduCQ07Eca51E-1319" value="&lt;h1 style=&quot;margin-top: 0px;&quot;&gt;Time&lt;/h1&gt;&lt;p&gt;The timestamps to the left with the &quot;non-office-hours&quot; smaller cause they are not used that often.&lt;/p&gt;" style="text;html=1;whiteSpace=wrap;overflow=hidden;rounded=0;" vertex="1" parent="1">
          <mxGeometry x="586.26" y="1169" width="180" height="120" as="geometry" />
        </mxCell>
        <mxCell id="bjD7JFmVduCQ07Eca51E-1321" value="" style="endArrow=classic;html=1;rounded=0;exitX=1;exitY=0.5;exitDx=0;exitDy=0;entryX=0;entryY=0.5;entryDx=0;entryDy=0;" edge="1" parent="1" source="bjD7JFmVduCQ07Eca51E-1313" target="bjD7JFmVduCQ07Eca51E-259">
          <mxGeometry width="50" height="50" relative="1" as="geometry">
            <mxPoint x="400" y="170" as="sourcePoint" />
            <mxPoint x="450" y="120" as="targetPoint" />
          </mxGeometry>
        </mxCell>
        <mxCell id="bjD7JFmVduCQ07Eca51E-1322" value="" style="endArrow=classic;html=1;rounded=0;exitX=1;exitY=0.5;exitDx=0;exitDy=0;entryX=0;entryY=0.5;entryDx=0;entryDy=0;" edge="1" parent="1" source="bjD7JFmVduCQ07Eca51E-1314" target="bjD7JFmVduCQ07Eca51E-269">
          <mxGeometry width="50" height="50" relative="1" as="geometry">
            <mxPoint x="400" y="510" as="sourcePoint" />
            <mxPoint x="450" y="460" as="targetPoint" />
          </mxGeometry>
        </mxCell>
        <mxCell id="bjD7JFmVduCQ07Eca51E-1323" value="" style="endArrow=classic;html=1;rounded=0;exitX=1;exitY=0.5;exitDx=0;exitDy=0;entryX=0;entryY=0.5;entryDx=0;entryDy=0;" edge="1" parent="1" source="bjD7JFmVduCQ07Eca51E-1315" target="bjD7JFmVduCQ07Eca51E-637">
          <mxGeometry width="50" height="50" relative="1" as="geometry">
            <mxPoint x="400" y="670" as="sourcePoint" />
            <mxPoint x="450" y="620" as="targetPoint" />
          </mxGeometry>
        </mxCell>
        <mxCell id="bjD7JFmVduCQ07Eca51E-1324" value="" style="endArrow=classic;html=1;rounded=0;exitX=0;exitY=0.5;exitDx=0;exitDy=0;" edge="1" parent="1" source="bjD7JFmVduCQ07Eca51E-1316">
          <mxGeometry width="50" height="50" relative="1" as="geometry">
            <mxPoint x="1950" y="510" as="sourcePoint" />
            <mxPoint x="2070" y="110" as="targetPoint" />
          </mxGeometry>
        </mxCell>
        <mxCell id="bjD7JFmVduCQ07Eca51E-1325" value="" style="endArrow=classic;html=1;rounded=0;exitX=0;exitY=0.5;exitDx=0;exitDy=0;entryX=0.5;entryY=0;entryDx=0;entryDy=0;" edge="1" parent="1" source="bjD7JFmVduCQ07Eca51E-1318" target="bjD7JFmVduCQ07Eca51E-741">
          <mxGeometry width="50" height="50" relative="1" as="geometry">
            <mxPoint x="1950" y="340" as="sourcePoint" />
            <mxPoint x="2000" y="290" as="targetPoint" />
          </mxGeometry>
        </mxCell>
        <mxCell id="bjD7JFmVduCQ07Eca51E-1326" value="" style="endArrow=classic;html=1;rounded=0;exitX=0;exitY=0.5;exitDx=0;exitDy=0;entryX=0;entryY=0.5;entryDx=0;entryDy=0;" edge="1" parent="1" source="bjD7JFmVduCQ07Eca51E-1319" target="bjD7JFmVduCQ07Eca51E-510">
          <mxGeometry width="50" height="50" relative="1" as="geometry">
            <mxPoint x="1950" y="670" as="sourcePoint" />
            <mxPoint x="2000" y="620" as="targetPoint" />
          </mxGeometry>
        </mxCell>
        <mxCell id="bjD7JFmVduCQ07Eca51E-1327" value="" style="endArrow=classic;html=1;rounded=0;exitX=0;exitY=0.5;exitDx=0;exitDy=0;entryX=0.715;entryY=0.015;entryDx=0;entryDy=0;entryPerimeter=0;" edge="1" parent="1" source="bjD7JFmVduCQ07Eca51E-1317" target="bjD7JFmVduCQ07Eca51E-311">
          <mxGeometry width="50" height="50" relative="1" as="geometry">
            <mxPoint x="1720" y="670" as="sourcePoint" />
            <mxPoint x="1770" y="620" as="targetPoint" />
          </mxGeometry>
        </mxCell>
      </root>
    </mxGraphModel>
  </diagram>
</mxfile>
